<svg xmlns="http://www.w3.org/2000/svg" xmlns:xlink="http://www.w3.org/1999/xlink" viewBox="0 0 500 500"><defs><clipPath id="clip-path"><circle cx="250" cy="246" r="245" style="fill:none"/></clipPath></defs><g style="isolation:isolate"><g id="Layer_1" data-name="Layer 1"><g style="clip-path:url(#clip-path)"><circle cx="250" cy="246" r="245" style="fill:#2be1fc"/><path d="M145.5,234V201.93a23,23,0,0,1,11-19.65h0l.22-.13c10.46-6.21,23.7,1.57,23.73,13.73V198" style="fill:none;stroke:#000;stroke-miterlimit:10;stroke-width:3px"/><ellipse cx="150" cy="322.5" rx="4.5" ry="8" style="fill:#fff;stroke:#000;stroke-miterlimit:10"/><ellipse cx="346" cy="323.5" rx="4.5" ry="8" style="fill:#fff;stroke:#000;stroke-miterlimit:10"/><g style="mix-blend-mode:multiply"><path d="M611,427.5v31A64.5,64.5,0,0,1,546.5,523h-194A64.5,64.5,0,0,1,288,458.5v-31" style="fill:gray"/><path d="M610.5,427v31A64.5,64.5,0,0,1,546,522.5H352A64.5,64.5,0,0,1,287.5,458V427" style="fill:gray"/><path d="M610,426.5v31A64.5,64.5,0,0,1,545.5,522h-194A64.5,64.5,0,0,1,287,457.5v-31" style="fill:gray"/><path d="M609.5,426v31A64.5,64.5,0,0,1,545,521.5H351A64.5,64.5,0,0,1,286.5,457V426" style="fill:gray"/><path d="M609,425.5v31A64.5,64.5,0,0,1,544.5,521h-194A64.5,64.5,0,0,1,286,456.5v-31" style="fill:gray"/><path d="M608.5,425v31A64.5,64.5,0,0,1,544,520.5H350A64.5,64.5,0,0,1,285.5,456V425" style="fill:gray"/><path d="M608,424.5v31A64.5,64.5,0,0,1,543.5,520h-194A64.5,64.5,0,0,1,285,455.5v-31" style="fill:gray"/><path d="M607.5,424v31A64.5,64.5,0,0,1,543,519.5H349A64.5,64.5,0,0,1,284.5,455V424" style="fill:gray"/><path d="M607,423.5v31A64.5,64.5,0,0,1,542.5,519h-194A64.5,64.5,0,0,1,284,454.5v-31" style="fill:gray"/><path d="M606.5,423v31A64.5,64.5,0,0,1,542,518.5H348A64.5,64.5,0,0,1,283.5,454V423" style="fill:gray"/><path d="M606,422.5v31A64.5,64.5,0,0,1,541.5,518h-194A64.5,64.5,0,0,1,283,453.5v-31" style="fill:gray"/><path d="M605.5,422v31A64.5,64.5,0,0,1,541,517.5H347A64.5,64.5,0,0,1,282.5,453V422" style="fill:gray"/><path d="M605,421.5v31A64.5,64.5,0,0,1,540.5,517h-194A64.5,64.5,0,0,1,282,452.5v-31" style="fill:gray"/><path d="M604.5,421v31A64.5,64.5,0,0,1,540,516.5H346A64.5,64.5,0,0,1,281.5,452V421" style="fill:gray"/><path d="M604,420.5v31A64.5,64.5,0,0,1,539.5,516h-194A64.5,64.5,0,0,1,281,451.5v-31" style="fill:gray"/><path d="M603.5,420v31A64.5,64.5,0,0,1,539,515.5H345A64.5,64.5,0,0,1,280.5,451V420" style="fill:gray"/><path d="M603,419.5v31A64.5,64.5,0,0,1,538.5,515h-194A64.5,64.5,0,0,1,280,450.5v-31" style="fill:gray"/><path d="M602.5,419v31A64.5,64.5,0,0,1,538,514.5H344A64.5,64.5,0,0,1,279.5,450V419" style="fill:gray"/><path d="M602,418.5v31A64.5,64.5,0,0,1,537.5,514h-194A64.5,64.5,0,0,1,279,449.5v-31" style="fill:gray"/><path d="M601.5,418v31A64.5,64.5,0,0,1,537,513.5H343A64.5,64.5,0,0,1,278.5,449V418" style="fill:gray"/><path d="M601,417.5v31A64.5,64.5,0,0,1,536.5,513h-194A64.5,64.5,0,0,1,278,448.5v-31" style="fill:gray"/><path d="M600.5,417v31A64.5,64.5,0,0,1,536,512.5H342A64.5,64.5,0,0,1,277.5,448V417" style="fill:gray"/><path d="M600,416.5v31A64.5,64.5,0,0,1,535.5,512h-194A64.5,64.5,0,0,1,277,447.5v-31" style="fill:gray"/><path d="M599.5,416v31A64.5,64.5,0,0,1,535,511.5H341A64.5,64.5,0,0,1,276.5,447V416" style="fill:gray"/><path d="M599,415.5v31A64.5,64.5,0,0,1,534.5,511h-194A64.5,64.5,0,0,1,276,446.5v-31" style="fill:gray"/><path d="M598.5,415v31A64.5,64.5,0,0,1,534,510.5H340A64.5,64.5,0,0,1,275.5,446V415" style="fill:gray"/><path d="M598,414.5v31A64.5,64.5,0,0,1,533.5,510h-194A64.5,64.5,0,0,1,275,445.5v-31" style="fill:gray"/><path d="M597.5,414v31A64.5,64.5,0,0,1,533,509.5H339A64.5,64.5,0,0,1,274.5,445V414" style="fill:gray"/><path d="M597,413.5v31A64.5,64.5,0,0,1,532.5,509h-194A64.5,64.5,0,0,1,274,444.5v-31" style="fill:gray"/><path d="M596.5,413v31A64.5,64.5,0,0,1,532,508.5H338A64.5,64.5,0,0,1,273.5,444V413" style="fill:gray"/><path d="M596,412.5v31A64.5,64.5,0,0,1,531.5,508h-194A64.5,64.5,0,0,1,273,443.5v-31" style="fill:gray"/><path d="M595.5,412v31A64.5,64.5,0,0,1,531,507.5H337A64.5,64.5,0,0,1,272.5,443V412" style="fill:gray"/><path d="M595,411.5v31A64.5,64.5,0,0,1,530.5,507h-194A64.5,64.5,0,0,1,272,442.5v-31" style="fill:gray"/><path d="M594.5,411v31A64.5,64.5,0,0,1,530,506.5H336A64.5,64.5,0,0,1,271.5,442V411" style="fill:gray"/><path d="M594,410.5v31A64.5,64.5,0,0,1,529.5,506h-194A64.5,64.5,0,0,1,271,441.5v-31" style="fill:gray"/><path d="M593.5,410v31A64.5,64.5,0,0,1,529,505.5H335A64.5,64.5,0,0,1,270.5,441V410" style="fill:gray"/><path d="M593,409.5v31A64.5,64.5,0,0,1,528.5,505h-194A64.5,64.5,0,0,1,270,440.5v-31" style="fill:gray"/><path d="M592.5,409v31A64.5,64.5,0,0,1,528,504.5H334A64.5,64.5,0,0,1,269.5,440V409" style="fill:gray"/><path d="M592,408.5v31A64.5,64.5,0,0,1,527.5,504h-194A64.5,64.5,0,0,1,269,439.5v-31" style="fill:gray"/><path d="M591.5,408v31A64.5,64.5,0,0,1,527,503.5H333A64.5,64.5,0,0,1,268.5,439V408" style="fill:gray"/><path d="M591,407.5v31A64.5,64.5,0,0,1,526.5,503h-194A64.5,64.5,0,0,1,268,438.5v-31" style="fill:gray"/><path d="M590.5,407v31A64.5,64.5,0,0,1,526,502.5H332A64.5,64.5,0,0,1,267.5,438V407" style="fill:gray"/><path d="M590,406.5v31A64.5,64.5,0,0,1,525.5,502h-194A64.5,64.5,0,0,1,267,437.5v-31" style="fill:gray"/><path d="M589.5,406v31A64.5,64.5,0,0,1,525,501.5H331A64.5,64.5,0,0,1,266.5,437V406" style="fill:gray"/><path d="M589,405.5v31A64.5,64.5,0,0,1,524.5,501h-194A64.5,64.5,0,0,1,266,436.5v-31" style="fill:gray"/><path d="M588.5,405v31A64.5,64.5,0,0,1,524,500.5H330A64.5,64.5,0,0,1,265.5,436V405" style="fill:gray"/><path d="M588,404.5v31A64.5,64.5,0,0,1,523.5,500h-194A64.5,64.5,0,0,1,265,435.5v-31" style="fill:gray"/><path d="M587.5,404v31A64.5,64.5,0,0,1,523,499.5H329A64.5,64.5,0,0,1,264.5,435V404" style="fill:gray"/><path d="M587,403.5v31A64.5,64.5,0,0,1,522.5,499h-194A64.5,64.5,0,0,1,264,434.5v-31" style="fill:gray"/><path d="M586.5,403v31A64.5,64.5,0,0,1,522,498.5H328A64.5,64.5,0,0,1,263.5,434V403" style="fill:gray"/><path d="M586,402.5v31A64.5,64.5,0,0,1,521.5,498h-194A64.5,64.5,0,0,1,263,433.5v-31" style="fill:gray"/><path d="M585.5,402v31A64.5,64.5,0,0,1,521,497.5H327A64.5,64.5,0,0,1,262.5,433V402" style="fill:gray"/><path d="M585,401.5v31A64.5,64.5,0,0,1,520.5,497h-194A64.5,64.5,0,0,1,262,432.5v-31" style="fill:gray"/><path d="M584.5,401v31A64.5,64.5,0,0,1,520,496.5H326A64.5,64.5,0,0,1,261.5,432V401" style="fill:gray"/><path d="M584,400.5v31A64.5,64.5,0,0,1,519.5,496h-194A64.5,64.5,0,0,1,261,431.5v-31" style="fill:gray"/><path d="M583.5,400v31A64.5,64.5,0,0,1,519,495.5H325A64.5,64.5,0,0,1,260.5,431V400" style="fill:gray"/><path d="M583,399.5v31A64.5,64.5,0,0,1,518.5,495h-194A64.5,64.5,0,0,1,260,430.5v-31" style="fill:gray"/><path d="M582.5,399v31A64.5,64.5,0,0,1,518,494.5H324A64.5,64.5,0,0,1,259.5,430V399" style="fill:gray"/><path d="M582,398.5v31A64.5,64.5,0,0,1,517.5,494h-194A64.5,64.5,0,0,1,259,429.5v-31" style="fill:gray"/><path d="M581.5,398v31A64.5,64.5,0,0,1,517,493.5H323A64.5,64.5,0,0,1,258.5,429V398" style="fill:gray"/><path d="M581,397.5v31A64.5,64.5,0,0,1,516.5,493h-194A64.5,64.5,0,0,1,258,428.5v-31" style="fill:gray"/><path d="M580.5,397v31A64.5,64.5,0,0,1,516,492.5H322A64.5,64.5,0,0,1,257.5,428V397" style="fill:gray"/><path d="M580,396.5v31A64.5,64.5,0,0,1,515.5,492h-194A64.5,64.5,0,0,1,257,427.5v-31" style="fill:gray"/><path d="M579.5,396v31A64.5,64.5,0,0,1,515,491.5H321A64.5,64.5,0,0,1,256.5,427V396" style="fill:gray"/><path d="M579,395.5v31A64.5,64.5,0,0,1,514.5,491h-194A64.5,64.5,0,0,1,256,426.5v-31" style="fill:gray"/><path d="M578.5,395v31A64.5,64.5,0,0,1,514,490.5H320A64.5,64.5,0,0,1,255.5,426V395" style="fill:gray"/><path d="M578,394.5v31A64.5,64.5,0,0,1,513.5,490h-194A64.5,64.5,0,0,1,255,425.5v-31" style="fill:gray"/><path d="M577.5,394v31A64.5,64.5,0,0,1,513,489.5H319A64.5,64.5,0,0,1,254.5,425V394" style="fill:gray"/><path d="M577,393.5v31A64.5,64.5,0,0,1,512.5,489h-194A64.5,64.5,0,0,1,254,424.5v-31" style="fill:gray"/><path d="M576.5,393v31A64.5,64.5,0,0,1,512,488.5H318A64.5,64.5,0,0,1,253.5,424V393" style="fill:gray"/><path d="M576,392.5v31A64.5,64.5,0,0,1,511.5,488h-194A64.5,64.5,0,0,1,253,423.5v-31" style="fill:gray"/><path d="M575.5,392v31A64.5,64.5,0,0,1,511,487.5H317A64.5,64.5,0,0,1,252.5,423V392" style="fill:gray"/><path d="M575,391.5v31A64.5,64.5,0,0,1,510.5,487h-194A64.5,64.5,0,0,1,252,422.5v-31" style="fill:gray"/><path d="M574.5,391v31A64.5,64.5,0,0,1,510,486.5H316A64.5,64.5,0,0,1,251.5,422V391" style="fill:gray"/><path d="M574,390.5v31A64.5,64.5,0,0,1,509.5,486h-194A64.5,64.5,0,0,1,251,421.5v-31" style="fill:gray"/><path d="M573.5,390v31A64.5,64.5,0,0,1,509,485.5H315A64.5,64.5,0,0,1,250.5,421V390" style="fill:gray"/><path d="M573,389.5v31A64.5,64.5,0,0,1,508.5,485h-194A64.5,64.5,0,0,1,250,420.5v-31" style="fill:gray"/><path d="M572.5,389v31A64.5,64.5,0,0,1,508,484.5H314A64.5,64.5,0,0,1,249.5,420V389" style="fill:gray"/><path d="M572,388.5v31A64.5,64.5,0,0,1,507.5,484h-194A64.5,64.5,0,0,1,249,419.5v-31" style="fill:gray"/><path d="M571.5,388v31A64.5,64.5,0,0,1,507,483.5H313A64.5,64.5,0,0,1,248.5,419V388" style="fill:gray"/><path d="M571,387.5v31A64.5,64.5,0,0,1,506.5,483h-194A64.5,64.5,0,0,1,248,418.5v-31" style="fill:gray"/><path d="M570.5,387v31A64.5,64.5,0,0,1,506,482.5H312A64.5,64.5,0,0,1,247.5,418V387" style="fill:gray"/><path d="M570,386.5v31A64.5,64.5,0,0,1,505.5,482h-194A64.5,64.5,0,0,1,247,417.5v-31" style="fill:gray"/><path d="M569.5,386v31A64.5,64.5,0,0,1,505,481.5H311A64.5,64.5,0,0,1,246.5,417V386" style="fill:gray"/><path d="M569,385.5v31A64.5,64.5,0,0,1,504.5,481h-194A64.5,64.5,0,0,1,246,416.5v-31" style="fill:gray"/><path d="M568.5,385v31A64.5,64.5,0,0,1,504,480.5H310A64.5,64.5,0,0,1,245.5,416V385" style="fill:gray"/><path d="M568,384.5v31A64.5,64.5,0,0,1,503.5,480h-194A64.5,64.5,0,0,1,245,415.5v-31" style="fill:gray"/><path d="M567.5,384v31A64.5,64.5,0,0,1,503,479.5H309A64.5,64.5,0,0,1,244.5,415V384" style="fill:gray"/><path d="M567,383.5v31A64.5,64.5,0,0,1,502.5,479h-194A64.5,64.5,0,0,1,244,414.5v-31" style="fill:gray"/><path d="M566.5,383v31A64.5,64.5,0,0,1,502,478.5H308A64.5,64.5,0,0,1,243.5,414V383" style="fill:gray"/><path d="M566,382.5v31A64.5,64.5,0,0,1,501.5,478h-194A64.5,64.5,0,0,1,243,413.5v-31" style="fill:gray"/><path d="M565.5,382v31A64.5,64.5,0,0,1,501,477.5H307A64.5,64.5,0,0,1,242.5,413V382" style="fill:gray"/><path d="M565,381.5v31A64.5,64.5,0,0,1,500.5,477h-194A64.5,64.5,0,0,1,242,412.5v-31" style="fill:gray"/><path d="M564.5,381v31A64.5,64.5,0,0,1,500,476.5H306A64.5,64.5,0,0,1,241.5,412V381" style="fill:gray"/><path d="M564,380.5v31A64.5,64.5,0,0,1,499.5,476h-194A64.5,64.5,0,0,1,241,411.5v-31" style="fill:gray"/><path d="M563.5,380v31A64.5,64.5,0,0,1,499,475.5H305A64.5,64.5,0,0,1,240.5,411V380" style="fill:gray"/><path d="M563,379.5v31A64.5,64.5,0,0,1,498.5,475h-194A64.5,64.5,0,0,1,240,410.5v-31" style="fill:gray"/><path d="M562.5,379v31A64.5,64.5,0,0,1,498,474.5H304A64.5,64.5,0,0,1,239.5,410V379" style="fill:gray"/><path d="M562,378.5v31A64.5,64.5,0,0,1,497.5,474h-194A64.5,64.5,0,0,1,239,409.5v-31" style="fill:gray"/><path d="M561.5,378v31A64.5,64.5,0,0,1,497,473.5H303A64.5,64.5,0,0,1,238.5,409V378" style="fill:gray"/><path d="M561,377.5v31A64.5,64.5,0,0,1,496.5,473h-194A64.5,64.5,0,0,1,238,408.5v-31" style="fill:gray"/><path d="M560.5,377v31A64.5,64.5,0,0,1,496,472.5H302A64.5,64.5,0,0,1,237.5,408V377" style="fill:gray"/><path d="M560,376.5v31A64.5,64.5,0,0,1,495.5,472h-194A64.5,64.5,0,0,1,237,407.5v-31" style="fill:gray"/><path d="M559.5,376v31A64.5,64.5,0,0,1,495,471.5H301A64.5,64.5,0,0,1,236.5,407V376" style="fill:gray"/><path d="M559,375.5v31A64.5,64.5,0,0,1,494.5,471h-194A64.5,64.5,0,0,1,236,406.5v-31" style="fill:gray"/><path d="M558.5,375v31A64.5,64.5,0,0,1,494,470.5H300A64.5,64.5,0,0,1,235.5,406V375" style="fill:gray"/><path d="M558,374.5v31A64.5,64.5,0,0,1,493.5,470h-194A64.5,64.5,0,0,1,235,405.5v-31" style="fill:gray"/><path d="M557.5,374v31A64.5,64.5,0,0,1,493,469.5H299A64.5,64.5,0,0,1,234.5,405V374" style="fill:gray"/><path d="M557,373.5v31A64.5,64.5,0,0,1,492.5,469h-194A64.5,64.5,0,0,1,234,404.5v-31" style="fill:gray"/><path d="M556.5,373v31A64.5,64.5,0,0,1,492,468.5H298A64.5,64.5,0,0,1,233.5,404V373" style="fill:gray"/><path d="M556,372.5v31A64.5,64.5,0,0,1,491.5,468h-194A64.5,64.5,0,0,1,233,403.5v-31" style="fill:gray"/><path d="M555.5,372v31A64.5,64.5,0,0,1,491,467.5H297A64.5,64.5,0,0,1,232.5,403V372" style="fill:gray"/><path d="M555,371.5v31A64.5,64.5,0,0,1,490.5,467h-194A64.5,64.5,0,0,1,232,402.5v-31" style="fill:gray"/><path d="M554.5,371v31A64.5,64.5,0,0,1,490,466.5H296A64.5,64.5,0,0,1,231.5,402V371" style="fill:gray"/><path d="M554,370.5v31A64.5,64.5,0,0,1,489.5,466h-194A64.5,64.5,0,0,1,231,401.5v-31" style="fill:gray"/><path d="M553.5,370v31A64.5,64.5,0,0,1,489,465.5H295A64.5,64.5,0,0,1,230.5,401V370" style="fill:gray"/><path d="M553,369.5v31A64.5,64.5,0,0,1,488.5,465h-194A64.5,64.5,0,0,1,230,400.5v-31" style="fill:gray"/><path d="M552.5,369v31A64.5,64.5,0,0,1,488,464.5H294A64.5,64.5,0,0,1,229.5,400V369" style="fill:gray"/><path d="M552,368.5v31A64.5,64.5,0,0,1,487.5,464h-194A64.5,64.5,0,0,1,229,399.5v-31" style="fill:gray"/><path d="M551.5,368v31A64.5,64.5,0,0,1,487,463.5H293A64.5,64.5,0,0,1,228.5,399V368" style="fill:gray"/><path d="M551,367.5v31A64.5,64.5,0,0,1,486.5,463h-194A64.5,64.5,0,0,1,228,398.5v-31" style="fill:gray"/><path d="M550.5,367v31A64.5,64.5,0,0,1,486,462.5H292A64.5,64.5,0,0,1,227.5,398V367" style="fill:gray"/><path d="M550,366.5v31A64.5,64.5,0,0,1,485.5,462h-194A64.5,64.5,0,0,1,227,397.5v-31" style="fill:gray"/><path d="M549.5,366v31A64.5,64.5,0,0,1,485,461.5H291A64.5,64.5,0,0,1,226.5,397V366" style="fill:gray"/><path d="M549,365.5v31A64.5,64.5,0,0,1,484.5,461h-194A64.5,64.5,0,0,1,226,396.5v-31" style="fill:gray"/><path d="M548.5,365v31A64.5,64.5,0,0,1,484,460.5H290A64.5,64.5,0,0,1,225.5,396V365" style="fill:gray"/><path d="M548,364.5v31A64.5,64.5,0,0,1,483.5,460h-194A64.5,64.5,0,0,1,225,395.5v-31" style="fill:gray"/><path d="M547.5,364v31A64.5,64.5,0,0,1,483,459.5H289A64.5,64.5,0,0,1,224.5,395V364" style="fill:gray"/><path d="M547,363.5v31A64.5,64.5,0,0,1,482.5,459h-194A64.5,64.5,0,0,1,224,394.5v-31" style="fill:gray"/><path d="M546.5,363v31A64.5,64.5,0,0,1,482,458.5H288A64.5,64.5,0,0,1,223.5,394V363" style="fill:gray"/><path d="M546,362.5v31A64.5,64.5,0,0,1,481.5,458h-194A64.5,64.5,0,0,1,223,393.5v-31" style="fill:gray"/><path d="M545.5,362v31A64.5,64.5,0,0,1,481,457.5H287A64.5,64.5,0,0,1,222.5,393V362" style="fill:gray"/><path d="M545,361.5v31A64.5,64.5,0,0,1,480.5,457h-194A64.5,64.5,0,0,1,222,392.5v-31" style="fill:gray"/><path d="M544.5,361v31A64.5,64.5,0,0,1,480,456.5H286A64.5,64.5,0,0,1,221.5,392V361" style="fill:gray"/><path d="M544,360.5v31A64.5,64.5,0,0,1,479.5,456h-194A64.5,64.5,0,0,1,221,391.5v-31" style="fill:gray"/><path d="M543.5,360v31A64.5,64.5,0,0,1,479,455.5H285A64.5,64.5,0,0,1,220.5,391V360" style="fill:gray"/><path d="M543,359.5v31A64.5,64.5,0,0,1,478.5,455h-194A64.5,64.5,0,0,1,220,390.5v-31" style="fill:gray"/><path d="M542.5,359v31A64.5,64.5,0,0,1,478,454.5H284A64.5,64.5,0,0,1,219.5,390V359" style="fill:gray"/><path d="M542,358.5v31A64.5,64.5,0,0,1,477.5,454h-194A64.5,64.5,0,0,1,219,389.5v-31" style="fill:gray"/><path d="M541.5,358v31A64.5,64.5,0,0,1,477,453.5H283A64.5,64.5,0,0,1,218.5,389V358" style="fill:gray"/><path d="M541,357.5v31A64.5,64.5,0,0,1,476.5,453h-194A64.5,64.5,0,0,1,218,388.5v-31" style="fill:gray"/><path d="M540.5,357v31A64.5,64.5,0,0,1,476,452.5H282A64.5,64.5,0,0,1,217.5,388V357" style="fill:gray"/><path d="M540,356.5v31A64.5,64.5,0,0,1,475.5,452h-194A64.5,64.5,0,0,1,217,387.5v-31" style="fill:gray"/><path d="M539.5,356v31A64.5,64.5,0,0,1,475,451.5H281A64.5,64.5,0,0,1,216.5,387V356" style="fill:gray"/><path d="M539,355.5v31A64.5,64.5,0,0,1,474.5,451h-194A64.5,64.5,0,0,1,216,386.5v-31" style="fill:gray"/><path d="M538.5,355v31A64.5,64.5,0,0,1,474,450.5H280A64.5,64.5,0,0,1,215.5,386V355" style="fill:gray"/><path d="M538,354.5v31A64.5,64.5,0,0,1,473.5,450h-194A64.5,64.5,0,0,1,215,385.5v-31" style="fill:gray"/><path d="M537.5,354v31A64.5,64.5,0,0,1,473,449.5H279A64.5,64.5,0,0,1,214.5,385V354" style="fill:gray"/><path d="M537,353.5v31A64.5,64.5,0,0,1,472.5,449h-194A64.5,64.5,0,0,1,214,384.5v-31" style="fill:gray"/><path d="M536.5,353v31A64.5,64.5,0,0,1,472,448.5H278A64.5,64.5,0,0,1,213.5,384V353" style="fill:gray"/><path d="M536,352.5v31A64.5,64.5,0,0,1,471.5,448h-194A64.5,64.5,0,0,1,213,383.5v-31" style="fill:gray"/><path d="M535.5,352v31A64.5,64.5,0,0,1,471,447.5H277A64.5,64.5,0,0,1,212.5,383V352" style="fill:gray"/><path d="M535,351.5v31A64.5,64.5,0,0,1,470.5,447h-194A64.5,64.5,0,0,1,212,382.5v-31" style="fill:gray"/><path d="M534.5,351v31A64.5,64.5,0,0,1,470,446.5H276A64.5,64.5,0,0,1,211.5,382V351" style="fill:gray"/><path d="M534,350.5v31A64.5,64.5,0,0,1,469.5,446h-194A64.5,64.5,0,0,1,211,381.5v-31" style="fill:gray"/><path d="M533.5,350v31A64.5,64.5,0,0,1,469,445.5H275A64.5,64.5,0,0,1,210.5,381V350" style="fill:gray"/><path d="M533,349.5v31A64.5,64.5,0,0,1,468.5,445h-194A64.5,64.5,0,0,1,210,380.5v-31" style="fill:gray"/><path d="M532.5,349v31A64.5,64.5,0,0,1,468,444.5H274A64.5,64.5,0,0,1,209.5,380V349" style="fill:gray"/><path d="M532,348.5v31A64.5,64.5,0,0,1,467.5,444h-194A64.5,64.5,0,0,1,209,379.5v-31" style="fill:gray"/><path d="M531.5,348v31A64.5,64.5,0,0,1,467,443.5H273A64.5,64.5,0,0,1,208.5,379V348" style="fill:gray"/><path d="M531,347.5v31A64.5,64.5,0,0,1,466.5,443h-194A64.5,64.5,0,0,1,208,378.5v-31" style="fill:gray"/><path d="M530.5,347v31A64.5,64.5,0,0,1,466,442.5H272A64.5,64.5,0,0,1,207.5,378V347" style="fill:gray"/><path d="M530,346.5v31A64.5,64.5,0,0,1,465.5,442h-194A64.5,64.5,0,0,1,207,377.5v-31" style="fill:gray"/><path d="M529.5,346v31A64.5,64.5,0,0,1,465,441.5H271A64.5,64.5,0,0,1,206.5,377V346" style="fill:gray"/><path d="M529,345.5v31A64.5,64.5,0,0,1,464.5,441h-194A64.5,64.5,0,0,1,206,376.5v-31" style="fill:gray"/><path d="M528.5,345v31A64.5,64.5,0,0,1,464,440.5H270A64.5,64.5,0,0,1,205.5,376V345" style="fill:gray"/><path d="M528,344.5v31A64.5,64.5,0,0,1,463.5,440h-194A64.5,64.5,0,0,1,205,375.5v-31" style="fill:gray"/><path d="M527.5,344v31A64.5,64.5,0,0,1,463,439.5H269A64.5,64.5,0,0,1,204.5,375V344" style="fill:gray"/><path d="M527,343.5v31A64.5,64.5,0,0,1,462.5,439h-194A64.5,64.5,0,0,1,204,374.5v-31" style="fill:gray"/><path d="M526.5,343v31A64.5,64.5,0,0,1,462,438.5H268A64.5,64.5,0,0,1,203.5,374V343" style="fill:gray"/><path d="M526,342.5v31A64.5,64.5,0,0,1,461.5,438h-194A64.5,64.5,0,0,1,203,373.5v-31" style="fill:gray"/><path d="M525.5,342v31A64.5,64.5,0,0,1,461,437.5H267A64.5,64.5,0,0,1,202.5,373V342" style="fill:gray"/><path d="M525,341.5v31A64.5,64.5,0,0,1,460.5,437h-194A64.5,64.5,0,0,1,202,372.5v-31" style="fill:gray"/><path d="M524.5,341v31A64.5,64.5,0,0,1,460,436.5H266A64.5,64.5,0,0,1,201.5,372V341" style="fill:gray"/><path d="M524,340.5v31A64.5,64.5,0,0,1,459.5,436h-194A64.5,64.5,0,0,1,201,371.5v-31" style="fill:gray"/><path d="M523.5,340v31A64.5,64.5,0,0,1,459,435.5H265A64.5,64.5,0,0,1,200.5,371V340" style="fill:gray"/><path d="M523,339.5v31A64.5,64.5,0,0,1,458.5,435h-194A64.5,64.5,0,0,1,200,370.5v-31" style="fill:gray"/><path d="M522.5,339v31A64.5,64.5,0,0,1,458,434.5H264A64.5,64.5,0,0,1,199.5,370V339" style="fill:gray"/><path d="M522,338.5v31A64.5,64.5,0,0,1,457.5,434h-194A64.5,64.5,0,0,1,199,369.5v-31" style="fill:gray"/><path d="M521.5,338v31A64.5,64.5,0,0,1,457,433.5H263A64.5,64.5,0,0,1,198.5,369V338" style="fill:gray"/><path d="M521,337.5v31A64.5,64.5,0,0,1,456.5,433h-194A64.5,64.5,0,0,1,198,368.5v-31" style="fill:gray"/><path d="M520.5,337v31A64.5,64.5,0,0,1,456,432.5H262A64.5,64.5,0,0,1,197.5,368V337" style="fill:gray"/><path d="M520,336.5v31A64.5,64.5,0,0,1,455.5,432h-194A64.5,64.5,0,0,1,197,367.5v-31" style="fill:gray"/><path d="M519.5,336v31A64.5,64.5,0,0,1,455,431.5H261A64.5,64.5,0,0,1,196.5,367V336" style="fill:gray"/><path d="M519,335.5v31A64.5,64.5,0,0,1,454.5,431h-194A64.5,64.5,0,0,1,196,366.5v-31" style="fill:gray"/><path d="M518.5,335v31A64.5,64.5,0,0,1,454,430.5H260A64.5,64.5,0,0,1,195.5,366V335" style="fill:gray"/><path d="M518,334.5v31A64.5,64.5,0,0,1,453.5,430h-194A64.5,64.5,0,0,1,195,365.5v-31" style="fill:gray"/><path d="M517.5,334v31A64.5,64.5,0,0,1,453,429.5H259A64.5,64.5,0,0,1,194.5,365V334" style="fill:gray"/><path d="M517,333.5v31A64.5,64.5,0,0,1,452.5,429h-194A64.5,64.5,0,0,1,194,364.5v-31" style="fill:gray"/><path d="M516.5,333v31A64.5,64.5,0,0,1,452,428.5H258A64.5,64.5,0,0,1,193.5,364V333" style="fill:gray"/><path d="M516,332.5v31A64.5,64.5,0,0,1,451.5,428h-194A64.5,64.5,0,0,1,193,363.5v-31" style="fill:gray"/><path d="M515.5,332v31A64.5,64.5,0,0,1,451,427.5H257A64.5,64.5,0,0,1,192.5,363V332" style="fill:gray"/><path d="M515,331.5v31A64.5,64.5,0,0,1,450.5,427h-194A64.5,64.5,0,0,1,192,362.5v-31" style="fill:gray"/><path d="M514.5,331v31A64.5,64.5,0,0,1,450,426.5H256A64.5,64.5,0,0,1,191.5,362V331" style="fill:gray"/><path d="M514,330.5v31A64.5,64.5,0,0,1,449.5,426h-194A64.5,64.5,0,0,1,191,361.5v-31" style="fill:gray"/><path d="M513.5,330v31A64.5,64.5,0,0,1,449,425.5H255A64.5,64.5,0,0,1,190.5,361V330" style="fill:gray"/><path d="M513,329.5v31A64.5,64.5,0,0,1,448.5,425h-194A64.5,64.5,0,0,1,190,360.5v-31" style="fill:gray"/><path d="M512.5,329v31A64.5,64.5,0,0,1,448,424.5H254A64.5,64.5,0,0,1,189.5,360V329" style="fill:gray"/><path d="M512,328.5v31A64.5,64.5,0,0,1,447.5,424h-194A64.5,64.5,0,0,1,189,359.5v-31" style="fill:gray"/><path d="M511.5,328v31A64.5,64.5,0,0,1,447,423.5H253A64.5,64.5,0,0,1,188.5,359V328" style="fill:gray"/><path d="M511,327.5v31A64.5,64.5,0,0,1,446.5,423h-194A64.5,64.5,0,0,1,188,358.5v-31" style="fill:gray"/><path d="M510.5,327v31A64.5,64.5,0,0,1,446,422.5H252A64.5,64.5,0,0,1,187.5,358V327" style="fill:gray"/><path d="M510,326.5v31A64.5,64.5,0,0,1,445.5,422h-194A64.5,64.5,0,0,1,187,357.5v-31" style="fill:gray"/><path d="M509.5,326v31A64.5,64.5,0,0,1,445,421.5H251A64.5,64.5,0,0,1,186.5,357V326" style="fill:gray"/><path d="M509,325.5v31A64.5,64.5,0,0,1,444.5,421h-194A64.5,64.5,0,0,1,186,356.5v-31" style="fill:gray"/><path d="M508.5,325v31A64.5,64.5,0,0,1,444,420.5H250A64.5,64.5,0,0,1,185.5,356V325" style="fill:gray"/><path d="M508,324.5v31A64.5,64.5,0,0,1,443.5,420h-194A64.5,64.5,0,0,1,185,355.5v-31" style="fill:gray"/><path d="M507.5,324v31A64.5,64.5,0,0,1,443,419.5H249A64.5,64.5,0,0,1,184.5,355V324" style="fill:gray"/><path d="M507,323.5v31A64.5,64.5,0,0,1,442.5,419h-194A64.5,64.5,0,0,1,184,354.5v-31" style="fill:gray"/><path d="M506.5,323v31A64.5,64.5,0,0,1,442,418.5H248A64.5,64.5,0,0,1,183.5,354V323" style="fill:gray"/><path d="M506,322.5v31A64.5,64.5,0,0,1,441.5,418h-194A64.5,64.5,0,0,1,183,353.5v-31" style="fill:gray"/><path d="M505.5,322v31A64.5,64.5,0,0,1,441,417.5H247A64.5,64.5,0,0,1,182.5,353V322" style="fill:gray"/><path d="M505,321.5v31A64.5,64.5,0,0,1,440.5,417h-194A64.5,64.5,0,0,1,182,352.5v-31" style="fill:gray"/><path d="M504.5,321v31A64.5,64.5,0,0,1,440,416.5H246A64.5,64.5,0,0,1,181.5,352V321" style="fill:gray"/><path d="M504,320.5v31A64.5,64.5,0,0,1,439.5,416h-194A64.5,64.5,0,0,1,181,351.5v-31" style="fill:gray"/><path d="M503.5,320v31A64.5,64.5,0,0,1,439,415.5H245A64.5,64.5,0,0,1,180.5,351V320" style="fill:gray"/><path d="M503,319.5v31A64.5,64.5,0,0,1,438.5,415h-194A64.5,64.5,0,0,1,180,350.5v-31" style="fill:gray"/><path d="M502.5,319v31A64.5,64.5,0,0,1,438,414.5H244A64.5,64.5,0,0,1,179.5,350V319" style="fill:gray"/><path d="M502,318.5v31A64.5,64.5,0,0,1,437.5,414h-194A64.5,64.5,0,0,1,179,349.5v-31" style="fill:gray"/><path d="M501.5,318v31A64.5,64.5,0,0,1,437,413.5H243A64.5,64.5,0,0,1,178.5,349V318" style="fill:gray"/><path d="M501,317.5v31A64.5,64.5,0,0,1,436.5,413h-194A64.5,64.5,0,0,1,178,348.5v-31" style="fill:gray"/><path d="M500.5,317v31A64.5,64.5,0,0,1,436,412.5H242A64.5,64.5,0,0,1,177.5,348V317" style="fill:gray"/><path d="M500,316.5v31A64.5,64.5,0,0,1,435.5,412h-194A64.5,64.5,0,0,1,177,347.5v-31" style="fill:gray"/><path d="M499.5,316v31A64.5,64.5,0,0,1,435,411.5H241A64.5,64.5,0,0,1,176.5,347V316" style="fill:gray"/><path d="M499,315.5v31A64.5,64.5,0,0,1,434.5,411h-194A64.5,64.5,0,0,1,176,346.5v-31" style="fill:gray"/><path d="M498.5,315v31A64.5,64.5,0,0,1,434,410.5H240A64.5,64.5,0,0,1,175.5,346V315" style="fill:gray"/><path d="M498,314.5v31A64.5,64.5,0,0,1,433.5,410h-194A64.5,64.5,0,0,1,175,345.5v-31" style="fill:gray"/><path d="M497.5,314v31A64.5,64.5,0,0,1,433,409.5H239A64.5,64.5,0,0,1,174.5,345V314" style="fill:gray"/><path d="M497,313.5v31A64.5,64.5,0,0,1,432.5,409h-194A64.5,64.5,0,0,1,174,344.5v-31" style="fill:gray"/><path d="M496.5,313v31A64.5,64.5,0,0,1,432,408.5H238A64.5,64.5,0,0,1,173.5,344V313" style="fill:gray"/><path d="M496,312.5v31A64.5,64.5,0,0,1,431.5,408h-194A64.5,64.5,0,0,1,173,343.5v-31" style="fill:gray"/><path d="M495.5,312v31A64.5,64.5,0,0,1,431,407.5H237A64.5,64.5,0,0,1,172.5,343V312" style="fill:gray"/><path d="M495,311.5v31A64.5,64.5,0,0,1,430.5,407h-194A64.5,64.5,0,0,1,172,342.5v-31" style="fill:gray"/><path d="M494.5,311v31A64.5,64.5,0,0,1,430,406.5H236A64.5,64.5,0,0,1,171.5,342V311" style="fill:gray"/><path d="M494,310.5v31A64.5,64.5,0,0,1,429.5,406h-194A64.5,64.5,0,0,1,171,341.5v-31" style="fill:gray"/><path d="M493.5,310v31A64.5,64.5,0,0,1,429,405.5H235A64.5,64.5,0,0,1,170.5,341V310" style="fill:gray"/><path d="M493,309.5v31A64.5,64.5,0,0,1,428.5,405h-194A64.5,64.5,0,0,1,170,340.5v-31" style="fill:gray"/><path d="M492.5,309v31A64.5,64.5,0,0,1,428,404.5H234A64.5,64.5,0,0,1,169.5,340V309" style="fill:gray"/><path d="M492,308.5v31A64.5,64.5,0,0,1,427.5,404h-194A64.5,64.5,0,0,1,169,339.5v-31" style="fill:gray"/><path d="M491.5,308v31A64.5,64.5,0,0,1,427,403.5H233A64.5,64.5,0,0,1,168.5,339V308" style="fill:gray"/><path d="M491,307.5v31A64.5,64.5,0,0,1,426.5,403h-194A64.5,64.5,0,0,1,168,338.5v-31" style="fill:gray"/><path d="M490.5,307v31A64.5,64.5,0,0,1,426,402.5H232A64.5,64.5,0,0,1,167.5,338V307" style="fill:gray"/><path d="M490,306.5v31A64.5,64.5,0,0,1,425.5,402h-194A64.5,64.5,0,0,1,167,337.5v-31" style="fill:gray"/><path d="M489.5,306v31A64.5,64.5,0,0,1,425,401.5H231A64.5,64.5,0,0,1,166.5,337V306" style="fill:gray"/><path d="M489,305.5v31A64.5,64.5,0,0,1,424.5,401h-194A64.5,64.5,0,0,1,166,336.5v-31" style="fill:gray"/><path d="M488.5,305v31A64.5,64.5,0,0,1,424,400.5H230A64.5,64.5,0,0,1,165.5,336V305" style="fill:gray"/><path d="M488,304.5v31A64.5,64.5,0,0,1,423.5,400h-194A64.5,64.5,0,0,1,165,335.5v-31" style="fill:gray"/><path d="M487.5,304v31A64.5,64.5,0,0,1,423,399.5H229A64.5,64.5,0,0,1,164.5,335V304" style="fill:gray"/><path d="M487,303.5v31A64.5,64.5,0,0,1,422.5,399h-194A64.5,64.5,0,0,1,164,334.5v-31" style="fill:gray"/><path d="M486.5,303v31A64.5,64.5,0,0,1,422,398.5H228A64.5,64.5,0,0,1,163.5,334V303" style="fill:gray"/><path d="M486,302.5v31A64.5,64.5,0,0,1,421.5,398h-194A64.5,64.5,0,0,1,163,333.5v-31" style="fill:gray"/><path d="M485.5,302v31A64.5,64.5,0,0,1,421,397.5H227A64.5,64.5,0,0,1,162.5,333V302" style="fill:gray"/><path d="M485,301.5v31A64.5,64.5,0,0,1,420.5,397h-194A64.5,64.5,0,0,1,162,332.5v-31" style="fill:gray"/><path d="M484.5,301v31A64.5,64.5,0,0,1,420,396.5H226A64.5,64.5,0,0,1,161.5,332V301" style="fill:gray"/><path d="M484,300.5v31A64.5,64.5,0,0,1,419.5,396h-194A64.5,64.5,0,0,1,161,331.5v-31" style="fill:gray"/><path d="M483.5,300v31A64.5,64.5,0,0,1,419,395.5H225A64.5,64.5,0,0,1,160.5,331V300" style="fill:gray"/><path d="M483,299.5v31A64.5,64.5,0,0,1,418.5,395h-194A64.5,64.5,0,0,1,160,330.5v-31" style="fill:gray"/><path d="M482.5,299v31A64.5,64.5,0,0,1,418,394.5H224A64.5,64.5,0,0,1,159.5,330V299" style="fill:gray"/><path d="M482,298.5v31A64.5,64.5,0,0,1,417.5,394h-194A64.5,64.5,0,0,1,159,329.5v-31" style="fill:gray"/><path d="M481.5,298v31A64.5,64.5,0,0,1,417,393.5H223A64.5,64.5,0,0,1,158.5,329V298" style="fill:gray"/><path d="M481,297.5v31A64.5,64.5,0,0,1,416.5,393h-194A64.5,64.5,0,0,1,158,328.5v-31" style="fill:gray"/><path d="M480.5,297v31A64.5,64.5,0,0,1,416,392.5H222A64.5,64.5,0,0,1,157.5,328V297" style="fill:gray"/><path d="M480,296.5v31A64.5,64.5,0,0,1,415.5,392h-194A64.5,64.5,0,0,1,157,327.5v-31" style="fill:gray"/><path d="M479.5,296v31A64.5,64.5,0,0,1,415,391.5H221A64.5,64.5,0,0,1,156.5,327V296" style="fill:gray"/><path d="M479,295.5v31A64.5,64.5,0,0,1,414.5,391h-194A64.5,64.5,0,0,1,156,326.5v-31" style="fill:gray"/><path d="M478.5,295v31A64.5,64.5,0,0,1,414,390.5H220A64.5,64.5,0,0,1,155.5,326V295" style="fill:gray"/><path d="M478,294.5v31A64.5,64.5,0,0,1,413.5,390h-194A64.5,64.5,0,0,1,155,325.5v-31" style="fill:gray"/><path d="M477.5,294v31A64.5,64.5,0,0,1,413,389.5H219A64.5,64.5,0,0,1,154.5,325V294" style="fill:gray"/><path d="M477,293.5v31A64.5,64.5,0,0,1,412.5,389h-194A64.5,64.5,0,0,1,154,324.5v-31" style="fill:gray"/><path d="M476.5,293v31A64.5,64.5,0,0,1,412,388.5H218A64.5,64.5,0,0,1,153.5,324V293" style="fill:gray"/><path d="M476,292.5v31A64.5,64.5,0,0,1,411.5,388h-194A64.5,64.5,0,0,1,153,323.5v-31" style="fill:gray"/><path d="M475.5,292v31A64.5,64.5,0,0,1,411,387.5H217A64.5,64.5,0,0,1,152.5,323V292" style="fill:gray"/><path d="M475,291.5v31A64.5,64.5,0,0,1,410.5,387h-194A64.5,64.5,0,0,1,152,322.5v-31" style="fill:gray"/><path d="M474.5,291v31A64.5,64.5,0,0,1,410,386.5H216A64.5,64.5,0,0,1,151.5,322V291" style="fill:gray"/><path d="M474,290.5v31A64.5,64.5,0,0,1,409.5,386h-194A64.5,64.5,0,0,1,151,321.5v-31" style="fill:gray"/><path d="M473.5,290v31A64.5,64.5,0,0,1,409,385.5H215A64.5,64.5,0,0,1,150.5,321V290" style="fill:gray"/><path d="M473,289.5v31A64.5,64.5,0,0,1,408.5,385h-194A64.5,64.5,0,0,1,150,320.5v-31" style="fill:gray"/><path d="M472.5,289v31A64.5,64.5,0,0,1,408,384.5H214A64.5,64.5,0,0,1,149.5,320V289" style="fill:gray"/><path d="M472,288.5v31A64.5,64.5,0,0,1,407.5,384h-194A64.5,64.5,0,0,1,149,319.5v-31" style="fill:gray"/><path d="M471.5,288v31A64.5,64.5,0,0,1,407,383.5H213A64.5,64.5,0,0,1,148.5,319V288" style="fill:gray"/><path d="M471,287.5v31A64.5,64.5,0,0,1,406.5,383h-194A64.5,64.5,0,0,1,148,318.5v-31" style="fill:gray"/><path d="M470.5,287v31A64.5,64.5,0,0,1,406,382.5H212A64.5,64.5,0,0,1,147.5,318V287" style="fill:gray"/><path d="M470,286.5v31A64.5,64.5,0,0,1,405.5,382h-194A64.5,64.5,0,0,1,147,317.5v-31" style="fill:gray"/><path d="M469.5,286v31A64.5,64.5,0,0,1,405,381.5H211A64.5,64.5,0,0,1,146.5,317V286" style="fill:gray"/><path d="M469,285.5v31A64.5,64.5,0,0,1,404.5,381h-194A64.5,64.5,0,0,1,146,316.5v-31" style="fill:gray"/><path d="M468.5,285v31A64.5,64.5,0,0,1,404,380.5H210A64.5,64.5,0,0,1,145.5,316V285" style="fill:gray"/><path d="M468,284.5v31A64.5,64.5,0,0,1,403.5,380h-194A64.5,64.5,0,0,1,145,315.5v-31" style="fill:gray"/><path d="M467.5,284v31A64.5,64.5,0,0,1,403,379.5H209A64.5,64.5,0,0,1,144.5,315V284" style="fill:gray"/><path d="M467,283.5v31A64.5,64.5,0,0,1,402.5,379h-194A64.5,64.5,0,0,1,144,314.5v-31" style="fill:gray"/><path d="M466.5,283v31A64.5,64.5,0,0,1,402,378.5H208A64.5,64.5,0,0,1,143.5,314V283" style="fill:gray"/><path d="M466,282.5v31A64.5,64.5,0,0,1,401.5,378h-194A64.5,64.5,0,0,1,143,313.5v-31" style="fill:gray"/><path d="M465.5,282v31A64.5,64.5,0,0,1,401,377.5H207A64.5,64.5,0,0,1,142.5,313V282" style="fill:gray"/><path d="M465,281.5v31A64.5,64.5,0,0,1,400.5,377h-194A64.5,64.5,0,0,1,142,312.5v-31" style="fill:gray"/><path d="M464.5,281v31A64.5,64.5,0,0,1,400,376.5H206A64.5,64.5,0,0,1,141.5,312V281" style="fill:gray"/><path d="M464,280.5v31A64.5,64.5,0,0,1,399.5,376h-194A64.5,64.5,0,0,1,141,311.5v-31" style="fill:gray"/><path d="M463.5,280v31A64.5,64.5,0,0,1,399,375.5H205A64.5,64.5,0,0,1,140.5,311V280" style="fill:gray"/><path d="M463,279.5v31A64.5,64.5,0,0,1,398.5,375h-194A64.5,64.5,0,0,1,140,310.5v-31" style="fill:gray"/><path d="M462.5,279v31A64.5,64.5,0,0,1,398,374.5H204A64.5,64.5,0,0,1,139.5,310V279" style="fill:gray"/><path d="M462,278.5v31A64.5,64.5,0,0,1,397.5,374h-194A64.5,64.5,0,0,1,139,309.5v-31" style="fill:gray"/><path d="M461.5,278v31A64.5,64.5,0,0,1,397,373.5H203A64.5,64.5,0,0,1,138.5,309V278" style="fill:gray"/><path d="M461,277.5v31A64.5,64.5,0,0,1,396.5,373h-194A64.5,64.5,0,0,1,138,308.5v-31" style="fill:gray"/><path d="M460.5,277v31A64.5,64.5,0,0,1,396,372.5H202A64.5,64.5,0,0,1,137.5,308V277" style="fill:gray"/><path d="M460,276.5v31A64.5,64.5,0,0,1,395.5,372h-194A64.5,64.5,0,0,1,137,307.5v-31" style="fill:gray"/><path d="M459.5,276v31A64.5,64.5,0,0,1,395,371.5H201A64.5,64.5,0,0,1,136.5,307V276" style="fill:gray"/><path d="M459,275.5v31A64.5,64.5,0,0,1,394.5,371h-194A64.5,64.5,0,0,1,136,306.5v-31" style="fill:gray"/><path d="M458.5,275v31A64.5,64.5,0,0,1,394,370.5H200A64.5,64.5,0,0,1,135.5,306V275" style="fill:gray"/><path d="M458,274.5v31A64.5,64.5,0,0,1,393.5,370h-194A64.5,64.5,0,0,1,135,305.5v-31" style="fill:gray"/><path d="M457.5,274v31A64.5,64.5,0,0,1,393,369.5H199A64.5,64.5,0,0,1,134.5,305V274" style="fill:gray"/><path d="M457,273.5v31A64.5,64.5,0,0,1,392.5,369h-194A64.5,64.5,0,0,1,134,304.5v-31" style="fill:gray"/><path d="M456.5,273v31A64.5,64.5,0,0,1,392,368.5H198A64.5,64.5,0,0,1,133.5,304V273" style="fill:gray"/><path d="M456,272.5v31A64.5,64.5,0,0,1,391.5,368h-194A64.5,64.5,0,0,1,133,303.5v-31" style="fill:gray"/><path d="M455.5,272v31A64.5,64.5,0,0,1,391,367.5H197A64.5,64.5,0,0,1,132.5,303V272" style="fill:gray"/><path d="M455,271.5v31A64.5,64.5,0,0,1,390.5,367h-194A64.5,64.5,0,0,1,132,302.5v-31" style="fill:gray"/><path d="M454.5,271v31A64.5,64.5,0,0,1,390,366.5H196A64.5,64.5,0,0,1,131.5,302V271" style="fill:gray"/><path d="M454,270.5v31A64.5,64.5,0,0,1,389.5,366h-194A64.5,64.5,0,0,1,131,301.5v-31" style="fill:gray"/><path d="M453.5,270v31A64.5,64.5,0,0,1,389,365.5H195A64.5,64.5,0,0,1,130.5,301V270" style="fill:gray"/><path d="M453,269.5v31A64.5,64.5,0,0,1,388.5,365h-194A64.5,64.5,0,0,1,130,300.5v-31" style="fill:gray"/><path d="M452.5,269v31A64.5,64.5,0,0,1,388,364.5H194A64.5,64.5,0,0,1,129.5,300V269" style="fill:gray"/><path d="M452,268.5v31A64.5,64.5,0,0,1,387.5,364h-194A64.5,64.5,0,0,1,129,299.5v-31" style="fill:gray"/><path d="M451.5,268v31A64.5,64.5,0,0,1,387,363.5H193A64.5,64.5,0,0,1,128.5,299V268" style="fill:gray"/><path d="M451,267.5v31A64.5,64.5,0,0,1,386.5,363h-194A64.5,64.5,0,0,1,128,298.5v-31" style="fill:gray"/><path d="M450.5,267v31A64.5,64.5,0,0,1,386,362.5H192A64.5,64.5,0,0,1,127.5,298V267" style="fill:gray"/><path d="M450,266.5v31A64.5,64.5,0,0,1,385.5,362h-194A64.5,64.5,0,0,1,127,297.5v-31" style="fill:gray"/><path d="M449.5,266v31A64.5,64.5,0,0,1,385,361.5H191A64.5,64.5,0,0,1,126.5,297V266" style="fill:gray"/><path d="M449,265.5v31A64.5,64.5,0,0,1,384.5,361h-194A64.5,64.5,0,0,1,126,296.5v-31" style="fill:gray"/><path d="M448.5,265v31A64.5,64.5,0,0,1,384,360.5H190A64.5,64.5,0,0,1,125.5,296V265" style="fill:gray"/><path d="M448,264.5v31A64.5,64.5,0,0,1,383.5,360h-194A64.5,64.5,0,0,1,125,295.5v-31" style="fill:gray"/><path d="M447.5,264v31A64.5,64.5,0,0,1,383,359.5H189A64.5,64.5,0,0,1,124.5,295V264" style="fill:gray"/><path d="M447,263.5v31A64.5,64.5,0,0,1,382.5,359h-194A64.5,64.5,0,0,1,124,294.5v-31" style="fill:gray"/><path d="M446.5,263v31A64.5,64.5,0,0,1,382,358.5H188A64.5,64.5,0,0,1,123.5,294V263" style="fill:gray"/><path d="M446,262.5v31A64.5,64.5,0,0,1,381.5,358h-194A64.5,64.5,0,0,1,123,293.5v-31" style="fill:gray"/><path d="M445.5,262v31A64.5,64.5,0,0,1,381,357.5H187A64.5,64.5,0,0,1,122.5,293V262" style="fill:gray"/><path d="M445,261.5v31A64.5,64.5,0,0,1,380.5,357h-194A64.5,64.5,0,0,1,122,292.5v-31" style="fill:gray"/><path d="M444.5,261v31A64.5,64.5,0,0,1,380,356.5H186A64.5,64.5,0,0,1,121.5,292V261" style="fill:gray"/><path d="M444,260.5v31A64.5,64.5,0,0,1,379.5,356h-194A64.5,64.5,0,0,1,121,291.5v-31" style="fill:gray"/><path d="M443.5,260v31A64.5,64.5,0,0,1,379,355.5H185A64.5,64.5,0,0,1,120.5,291V260" style="fill:gray"/><path d="M443,259.5v31A64.5,64.5,0,0,1,378.5,355h-194A64.5,64.5,0,0,1,120,290.5v-31" style="fill:gray"/><path d="M442.5,259v31A64.5,64.5,0,0,1,378,354.5H184A64.5,64.5,0,0,1,119.5,290V259" style="fill:gray"/><path d="M442,258.5v31A64.5,64.5,0,0,1,377.5,354h-194A64.5,64.5,0,0,1,119,289.5v-31" style="fill:gray"/><path d="M441.5,258v31A64.5,64.5,0,0,1,377,353.5H183A64.5,64.5,0,0,1,118.5,289V258" style="fill:gray"/><path d="M441,257.5v31A64.5,64.5,0,0,1,376.5,353h-194A64.5,64.5,0,0,1,118,288.5v-31" style="fill:gray"/><path d="M440.5,257v31A64.5,64.5,0,0,1,376,352.5H182A64.5,64.5,0,0,1,117.5,288V257" style="fill:gray"/><path d="M440,256.5v31A64.5,64.5,0,0,1,375.5,352h-194A64.5,64.5,0,0,1,117,287.5v-31" style="fill:gray"/><path d="M439.5,256v31A64.5,64.5,0,0,1,375,351.5H181A64.5,64.5,0,0,1,116.5,287V256" style="fill:gray"/><path d="M439,255.5v31A64.5,64.5,0,0,1,374.5,351h-194A64.5,64.5,0,0,1,116,286.5v-31" style="fill:gray"/><path d="M438.5,255v31A64.5,64.5,0,0,1,374,350.5H180A64.5,64.5,0,0,1,115.5,286V255" style="fill:gray"/><path d="M438,254.5v31A64.5,64.5,0,0,1,373.5,350h-194A64.5,64.5,0,0,1,115,285.5v-31" style="fill:gray"/><path d="M437.5,254v31A64.5,64.5,0,0,1,373,349.5H179A64.5,64.5,0,0,1,114.5,285V254" style="fill:gray"/><path d="M437,253.5v31A64.5,64.5,0,0,1,372.5,349h-194A64.5,64.5,0,0,1,114,284.5v-31" style="fill:gray"/><path d="M436.5,253v31A64.5,64.5,0,0,1,372,348.5H178A64.5,64.5,0,0,1,113.5,284V253" style="fill:gray"/><path d="M436,252.5v31A64.5,64.5,0,0,1,371.5,348h-194A64.5,64.5,0,0,1,113,283.5v-31" style="fill:gray"/><path d="M435.5,252v31A64.5,64.5,0,0,1,371,347.5H177A64.5,64.5,0,0,1,112.5,283V252" style="fill:gray"/><path d="M435,251.5v31A64.5,64.5,0,0,1,370.5,347h-194A64.5,64.5,0,0,1,112,282.5v-31" style="fill:gray"/><path d="M434.5,251v31A64.5,64.5,0,0,1,370,346.5H176A64.5,64.5,0,0,1,111.5,282V251" style="fill:gray"/><path d="M434,250.5v31A64.5,64.5,0,0,1,369.5,346h-194A64.5,64.5,0,0,1,111,281.5v-31" style="fill:gray"/><path d="M433.5,250v31A64.5,64.5,0,0,1,369,345.5H175A64.5,64.5,0,0,1,110.5,281V250" style="fill:gray"/><path d="M433,249.5v31A64.5,64.5,0,0,1,368.5,345h-194A64.5,64.5,0,0,1,110,280.5v-31" style="fill:gray"/><path d="M432.5,249v31A64.5,64.5,0,0,1,368,344.5H174A64.5,64.5,0,0,1,109.5,280V249" style="fill:gray"/><path d="M432,248.5v31A64.5,64.5,0,0,1,367.5,344h-194A64.5,64.5,0,0,1,109,279.5v-31" style="fill:gray"/><path d="M431.5,248v31A64.5,64.5,0,0,1,367,343.5H173A64.5,64.5,0,0,1,108.5,279V248" style="fill:gray"/><path d="M431,247.5v31A64.5,64.5,0,0,1,366.5,343h-194A64.5,64.5,0,0,1,108,278.5v-31" style="fill:gray"/><path d="M430.5,247v31A64.5,64.5,0,0,1,366,342.5H172A64.5,64.5,0,0,1,107.5,278V247" style="fill:gray"/><path d="M430,246.5v31A64.5,64.5,0,0,1,365.5,342h-194A64.5,64.5,0,0,1,107,277.5v-31" style="fill:gray"/><path d="M429.5,246v31A64.5,64.5,0,0,1,365,341.5H171A64.5,64.5,0,0,1,106.5,277V246" style="fill:gray"/><path d="M429,245.5v31A64.5,64.5,0,0,1,364.5,341h-194A64.5,64.5,0,0,1,106,276.5v-31" style="fill:gray"/><path d="M428.5,245v31A64.5,64.5,0,0,1,364,340.5H170A64.5,64.5,0,0,1,105.5,276V245" style="fill:gray"/><path d="M428,244.5v31A64.5,64.5,0,0,1,363.5,340h-194A64.5,64.5,0,0,1,105,275.5v-31" style="fill:gray"/><path d="M427.5,244v31A64.5,64.5,0,0,1,363,339.5H169A64.5,64.5,0,0,1,104.5,275V244" style="fill:gray"/><path d="M427,243.5v31A64.5,64.5,0,0,1,362.5,339h-194A64.5,64.5,0,0,1,104,274.5v-31" style="fill:gray"/><path d="M426.5,243v31A64.5,64.5,0,0,1,362,338.5H168A64.5,64.5,0,0,1,103.5,274V243" style="fill:gray"/><path d="M426,242.5v31A64.5,64.5,0,0,1,361.5,338h-194A64.5,64.5,0,0,1,103,273.5v-31" style="fill:gray"/><path d="M425.5,242v31A64.5,64.5,0,0,1,361,337.5H167A64.5,64.5,0,0,1,102.5,273V242" style="fill:gray"/><path d="M425,241.5v31A64.5,64.5,0,0,1,360.5,337h-194A64.5,64.5,0,0,1,102,272.5v-31" style="fill:gray"/><path d="M424.5,241v31A64.5,64.5,0,0,1,360,336.5H166A64.5,64.5,0,0,1,101.5,272V241" style="fill:gray"/><path d="M424,240.5v31A64.5,64.5,0,0,1,359.5,336h-194A64.5,64.5,0,0,1,101,271.5v-31" style="fill:gray"/><path d="M423.5,240v31A64.5,64.5,0,0,1,359,335.5H165A64.5,64.5,0,0,1,100.5,271V240" style="fill:gray"/><path d="M423,239.5v31A64.5,64.5,0,0,1,358.5,335h-194A64.5,64.5,0,0,1,100,270.5v-31" style="fill:gray"/><path d="M422.5,239v31A64.5,64.5,0,0,1,358,334.5H164A64.5,64.5,0,0,1,99.5,270V239" style="fill:gray"/><path d="M422,238.5v31A64.5,64.5,0,0,1,357.5,334h-194A64.5,64.5,0,0,1,99,269.5v-31" style="fill:gray"/><path d="M421.5,238v31A64.5,64.5,0,0,1,357,333.5H163A64.5,64.5,0,0,1,98.5,269V238" style="fill:gray"/><path d="M421,237.5v31A64.5,64.5,0,0,1,356.5,333h-194A64.5,64.5,0,0,1,98,268.5v-31" style="fill:gray"/><path d="M420.5,237v31A64.5,64.5,0,0,1,356,332.5H162A64.5,64.5,0,0,1,97.5,268V237" style="fill:gray"/><path d="M420,236.5v31A64.5,64.5,0,0,1,355.5,332h-194A64.5,64.5,0,0,1,97,267.5v-31" style="fill:gray"/><path d="M419.5,236v31A64.5,64.5,0,0,1,355,331.5H161A64.5,64.5,0,0,1,96.5,267V236" style="fill:gray"/><path d="M419,235.5v31A64.5,64.5,0,0,1,354.5,331h-194A64.5,64.5,0,0,1,96,266.5v-31" style="fill:gray"/><path d="M418.5,235v31A64.5,64.5,0,0,1,354,330.5H160A64.5,64.5,0,0,1,95.5,266V235" style="fill:gray"/><path d="M418,234.5v31A64.5,64.5,0,0,1,353.5,330h-194A64.5,64.5,0,0,1,95,265.5v-31" style="fill:gray"/><path d="M417.5,234v31A64.5,64.5,0,0,1,353,329.5H159A64.5,64.5,0,0,1,94.5,265V234" style="fill:gray"/><path d="M417,233.5v31A64.5,64.5,0,0,1,352.5,329h-194A64.5,64.5,0,0,1,94,264.5v-31" style="fill:gray"/><path d="M416.5,233v31A64.5,64.5,0,0,1,352,328.5H158A64.5,64.5,0,0,1,93.5,264V233" style="fill:gray"/><path d="M416,232.5v31A64.5,64.5,0,0,1,351.5,328h-194A64.5,64.5,0,0,1,93,263.5v-31" style="fill:gray"/><path d="M415.5,232v31A64.5,64.5,0,0,1,351,327.5H157A64.5,64.5,0,0,1,92.5,263V232" style="fill:gray"/><path d="M415,231.5v31A64.5,64.5,0,0,1,350.5,327h-194A64.5,64.5,0,0,1,92,262.5v-31" style="fill:gray"/><path d="M414.5,231v31A64.5,64.5,0,0,1,350,326.5H156A64.5,64.5,0,0,1,91.5,262V231" style="fill:gray"/><path d="M414,230.5v31A64.5,64.5,0,0,1,349.5,326h-194A64.5,64.5,0,0,1,91,261.5v-31" style="fill:gray"/><path d="M413.5,230v31A64.5,64.5,0,0,1,349,325.5H155A64.5,64.5,0,0,1,90.5,261V230" style="fill:gray"/><path d="M413,229.5v31A64.5,64.5,0,0,1,348.5,325h-194A64.5,64.5,0,0,1,90,260.5v-31" style="fill:gray"/><path d="M412.5,229v31A64.5,64.5,0,0,1,348,324.5H154A64.5,64.5,0,0,1,89.5,260V229" style="fill:gray"/><path d="M412,228.5v31A64.5,64.5,0,0,1,347.5,324h-194A64.5,64.5,0,0,1,89,259.5v-31" style="fill:gray"/><path d="M411.5,228v31A64.5,64.5,0,0,1,347,323.5H153A64.5,64.5,0,0,1,88.5,259V228" style="fill:gray"/><path d="M411,227.5v31A64.5,64.5,0,0,1,346.5,323h-194A64.5,64.5,0,0,1,88,258.5v-31" style="fill:gray"/></g><path d="M411,227.5v31A64.5,64.5,0,0,1,346.5,323h-194A64.5,64.5,0,0,1,88,258.5v-31" style="fill:none;stroke:#000;stroke-miterlimit:10;stroke-width:3px"/><path d="M411,227.5v31A64.5,64.5,0,0,1,346.5,323h-194A64.5,64.5,0,0,1,88,258.5v-31" style="fill:#fff"/><line x1="86.5" y1="227.5" x2="412" y2="227.5" style="fill:none;stroke:#000;stroke-miterlimit:10"/></g></g></g></svg>