<svg xmlns="http://www.w3.org/2000/svg" xmlns:xlink="http://www.w3.org/1999/xlink" viewBox="0 0 500 500"><defs><clipPath id="clip-path"><circle cx="-300" cy="246" r="245" style="fill:none"/></clipPath><clipPath id="clip-path-2"><circle cx="250" cy="244" r="245" style="fill:none"/></clipPath></defs><g style="isolation:isolate"><g id="Layer_1" data-name="Layer 1"><g style="clip-path:url(#clip-path)"><g style="mix-blend-mode:multiply"><path d="M61,427.5v31A64.5,64.5,0,0,1-3.5,523h-194A64.5,64.5,0,0,1-262,458.5v-31" style="fill:gray"/><path d="M60.5,427v31A64.5,64.5,0,0,1-4,522.5H-198A64.5,64.5,0,0,1-262.5,458V427" style="fill:gray"/><path d="M60,426.5v31A64.5,64.5,0,0,1-4.5,522h-194A64.5,64.5,0,0,1-263,457.5v-31" style="fill:gray"/><path d="M59.5,426v31A64.5,64.5,0,0,1-5,521.5H-199A64.5,64.5,0,0,1-263.5,457V426" style="fill:gray"/><path d="M59,425.5v31A64.5,64.5,0,0,1-5.5,521h-194A64.5,64.5,0,0,1-264,456.5v-31" style="fill:gray"/><path d="M58.5,425v31A64.5,64.5,0,0,1-6,520.5H-200A64.5,64.5,0,0,1-264.5,456V425" style="fill:gray"/><path d="M58,424.5v31A64.5,64.5,0,0,1-6.5,520h-194A64.5,64.5,0,0,1-265,455.5v-31" style="fill:gray"/><path d="M57.5,424v31A64.5,64.5,0,0,1-7,519.5H-201A64.5,64.5,0,0,1-265.5,455V424" style="fill:gray"/><path d="M57,423.5v31A64.5,64.5,0,0,1-7.5,519h-194A64.5,64.5,0,0,1-266,454.5v-31" style="fill:gray"/><path d="M56.5,423v31A64.5,64.5,0,0,1-8,518.5H-202A64.5,64.5,0,0,1-266.5,454V423" style="fill:gray"/><path d="M56,422.5v31A64.5,64.5,0,0,1-8.5,518h-194A64.5,64.5,0,0,1-267,453.5v-31" style="fill:gray"/><path d="M55.5,422v31A64.5,64.5,0,0,1-9,517.5H-203A64.5,64.5,0,0,1-267.5,453V422" style="fill:gray"/><path d="M55,421.5v31A64.5,64.5,0,0,1-9.5,517h-194A64.5,64.5,0,0,1-268,452.5v-31" style="fill:gray"/><path d="M54.5,421v31A64.5,64.5,0,0,1-10,516.5H-204A64.5,64.5,0,0,1-268.5,452V421" style="fill:gray"/><path d="M54,420.5v31A64.5,64.5,0,0,1-10.5,516h-194A64.5,64.5,0,0,1-269,451.5v-31" style="fill:gray"/><path d="M53.5,420v31A64.5,64.5,0,0,1-11,515.5H-205A64.5,64.5,0,0,1-269.5,451V420" style="fill:gray"/><path d="M53,419.5v31A64.5,64.5,0,0,1-11.5,515h-194A64.5,64.5,0,0,1-270,450.5v-31" style="fill:gray"/><path d="M52.5,419v31A64.5,64.5,0,0,1-12,514.5H-206A64.5,64.5,0,0,1-270.5,450V419" style="fill:gray"/><path d="M52,418.5v31A64.5,64.5,0,0,1-12.5,514h-194A64.5,64.5,0,0,1-271,449.5v-31" style="fill:gray"/><path d="M51.5,418v31A64.5,64.5,0,0,1-13,513.5H-207A64.5,64.5,0,0,1-271.5,449V418" style="fill:gray"/><path d="M51,417.5v31A64.5,64.5,0,0,1-13.5,513h-194A64.5,64.5,0,0,1-272,448.5v-31" style="fill:gray"/><path d="M50.5,417v31A64.5,64.5,0,0,1-14,512.5H-208A64.5,64.5,0,0,1-272.5,448V417" style="fill:gray"/><path d="M50,416.5v31A64.5,64.5,0,0,1-14.5,512h-194A64.5,64.5,0,0,1-273,447.5v-31" style="fill:gray"/><path d="M49.5,416v31A64.5,64.5,0,0,1-15,511.5H-209A64.5,64.5,0,0,1-273.5,447V416" style="fill:gray"/><path d="M49,415.5v31A64.5,64.5,0,0,1-15.5,511h-194A64.5,64.5,0,0,1-274,446.5v-31" style="fill:gray"/><path d="M48.5,415v31A64.5,64.5,0,0,1-16,510.5H-210A64.5,64.5,0,0,1-274.5,446V415" style="fill:gray"/><path d="M48,414.5v31A64.5,64.5,0,0,1-16.5,510h-194A64.5,64.5,0,0,1-275,445.5v-31" style="fill:gray"/><path d="M47.5,414v31A64.5,64.5,0,0,1-17,509.5H-211A64.5,64.5,0,0,1-275.5,445V414" style="fill:gray"/><path d="M47,413.5v31A64.5,64.5,0,0,1-17.5,509h-194A64.5,64.5,0,0,1-276,444.5v-31" style="fill:gray"/><path d="M46.5,413v31A64.5,64.5,0,0,1-18,508.5H-212A64.5,64.5,0,0,1-276.5,444V413" style="fill:gray"/><path d="M46,412.5v31A64.5,64.5,0,0,1-18.5,508h-194A64.5,64.5,0,0,1-277,443.5v-31" style="fill:gray"/><path d="M45.5,412v31A64.5,64.5,0,0,1-19,507.5H-213A64.5,64.5,0,0,1-277.5,443V412" style="fill:gray"/><path d="M45,411.5v31A64.5,64.5,0,0,1-19.5,507h-194A64.5,64.5,0,0,1-278,442.5v-31" style="fill:gray"/><path d="M44.5,411v31A64.5,64.5,0,0,1-20,506.5H-214A64.5,64.5,0,0,1-278.5,442V411" style="fill:gray"/><path d="M44,410.5v31A64.5,64.5,0,0,1-20.5,506h-194A64.5,64.5,0,0,1-279,441.5v-31" style="fill:gray"/><path d="M43.5,410v31A64.5,64.5,0,0,1-21,505.5H-215A64.5,64.5,0,0,1-279.5,441V410" style="fill:gray"/><path d="M43,409.5v31A64.5,64.5,0,0,1-21.5,505h-194A64.5,64.5,0,0,1-280,440.5v-31" style="fill:gray"/><path d="M42.5,409v31A64.5,64.5,0,0,1-22,504.5H-216A64.5,64.5,0,0,1-280.5,440V409" style="fill:gray"/><path d="M42,408.5v31A64.5,64.5,0,0,1-22.5,504h-194A64.5,64.5,0,0,1-281,439.5v-31" style="fill:gray"/><path d="M41.5,408v31A64.5,64.5,0,0,1-23,503.5H-217A64.5,64.5,0,0,1-281.5,439V408" style="fill:gray"/><path d="M41,407.5v31A64.5,64.5,0,0,1-23.5,503h-194A64.5,64.5,0,0,1-282,438.5v-31" style="fill:gray"/><path d="M40.5,407v31A64.5,64.5,0,0,1-24,502.5H-218A64.5,64.5,0,0,1-282.5,438V407" style="fill:gray"/><path d="M40,406.5v31A64.5,64.5,0,0,1-24.5,502h-194A64.5,64.5,0,0,1-283,437.5v-31" style="fill:gray"/><path d="M39.5,406v31A64.5,64.5,0,0,1-25,501.5H-219A64.5,64.5,0,0,1-283.5,437V406" style="fill:gray"/><path d="M39,405.5v31A64.5,64.5,0,0,1-25.5,501h-194A64.5,64.5,0,0,1-284,436.5v-31" style="fill:gray"/><path d="M38.5,405v31A64.5,64.5,0,0,1-26,500.5H-220A64.5,64.5,0,0,1-284.5,436V405" style="fill:gray"/><path d="M38,404.5v31A64.5,64.5,0,0,1-26.5,500h-194A64.5,64.5,0,0,1-285,435.5v-31" style="fill:gray"/><path d="M37.5,404v31A64.5,64.5,0,0,1-27,499.5H-221A64.5,64.5,0,0,1-285.5,435V404" style="fill:gray"/><path d="M37,403.5v31A64.5,64.5,0,0,1-27.5,499h-194A64.5,64.5,0,0,1-286,434.5v-31" style="fill:gray"/><path d="M36.5,403v31A64.5,64.5,0,0,1-28,498.5H-222A64.5,64.5,0,0,1-286.5,434V403" style="fill:gray"/><path d="M36,402.5v31A64.5,64.5,0,0,1-28.5,498h-194A64.5,64.5,0,0,1-287,433.5v-31" style="fill:gray"/><path d="M35.5,402v31A64.5,64.5,0,0,1-29,497.5H-223A64.5,64.5,0,0,1-287.5,433V402" style="fill:gray"/><path d="M35,401.5v31A64.5,64.5,0,0,1-29.5,497h-194A64.5,64.5,0,0,1-288,432.5v-31" style="fill:gray"/><path d="M34.5,401v31A64.5,64.5,0,0,1-30,496.5H-224A64.5,64.5,0,0,1-288.5,432V401" style="fill:gray"/><path d="M34,400.5v31A64.5,64.5,0,0,1-30.5,496h-194A64.5,64.5,0,0,1-289,431.5v-31" style="fill:gray"/><path d="M33.5,400v31A64.5,64.5,0,0,1-31,495.5H-225A64.5,64.5,0,0,1-289.5,431V400" style="fill:gray"/><path d="M33,399.5v31A64.5,64.5,0,0,1-31.5,495h-194A64.5,64.5,0,0,1-290,430.5v-31" style="fill:gray"/><path d="M32.5,399v31A64.5,64.5,0,0,1-32,494.5H-226A64.5,64.5,0,0,1-290.5,430V399" style="fill:gray"/><path d="M32,398.5v31A64.5,64.5,0,0,1-32.5,494h-194A64.5,64.5,0,0,1-291,429.5v-31" style="fill:gray"/><path d="M31.5,398v31A64.5,64.5,0,0,1-33,493.5H-227A64.5,64.5,0,0,1-291.5,429V398" style="fill:gray"/><path d="M31,397.5v31A64.5,64.5,0,0,1-33.5,493h-194A64.5,64.5,0,0,1-292,428.5v-31" style="fill:gray"/><path d="M30.5,397v31A64.5,64.5,0,0,1-34,492.5H-228A64.5,64.5,0,0,1-292.5,428V397" style="fill:gray"/><path d="M30,396.5v31A64.5,64.5,0,0,1-34.5,492h-194A64.5,64.5,0,0,1-293,427.5v-31" style="fill:gray"/><path d="M29.5,396v31A64.5,64.5,0,0,1-35,491.5H-229A64.5,64.5,0,0,1-293.5,427V396" style="fill:gray"/><path d="M29,395.5v31A64.5,64.5,0,0,1-35.5,491h-194A64.5,64.5,0,0,1-294,426.5v-31" style="fill:gray"/><path d="M28.5,395v31A64.5,64.5,0,0,1-36,490.5H-230A64.5,64.5,0,0,1-294.5,426V395" style="fill:gray"/><path d="M28,394.5v31A64.5,64.5,0,0,1-36.5,490h-194A64.5,64.5,0,0,1-295,425.5v-31" style="fill:gray"/><path d="M27.5,394v31A64.5,64.5,0,0,1-37,489.5H-231A64.5,64.5,0,0,1-295.5,425V394" style="fill:gray"/><path d="M27,393.5v31A64.5,64.5,0,0,1-37.5,489h-194A64.5,64.5,0,0,1-296,424.5v-31" style="fill:gray"/><path d="M26.5,393v31A64.5,64.5,0,0,1-38,488.5H-232A64.5,64.5,0,0,1-296.5,424V393" style="fill:gray"/><path d="M26,392.5v31A64.5,64.5,0,0,1-38.5,488h-194A64.5,64.5,0,0,1-297,423.5v-31" style="fill:gray"/><path d="M25.5,392v31A64.5,64.5,0,0,1-39,487.5H-233A64.5,64.5,0,0,1-297.5,423V392" style="fill:gray"/><path d="M25,391.5v31A64.5,64.5,0,0,1-39.5,487h-194A64.5,64.5,0,0,1-298,422.5v-31" style="fill:gray"/><path d="M24.5,391v31A64.5,64.5,0,0,1-40,486.5H-234A64.5,64.5,0,0,1-298.5,422V391" style="fill:gray"/><path d="M24,390.5v31A64.5,64.5,0,0,1-40.5,486h-194A64.5,64.5,0,0,1-299,421.5v-31" style="fill:gray"/><path d="M23.5,390v31A64.5,64.5,0,0,1-41,485.5H-235A64.5,64.5,0,0,1-299.5,421V390" style="fill:gray"/><path d="M23,389.5v31A64.5,64.5,0,0,1-41.5,485h-194A64.5,64.5,0,0,1-300,420.5v-31" style="fill:gray"/><path d="M22.5,389v31A64.5,64.5,0,0,1-42,484.5H-236A64.5,64.5,0,0,1-300.5,420V389" style="fill:gray"/><path d="M22,388.5v31A64.5,64.5,0,0,1-42.5,484h-194A64.5,64.5,0,0,1-301,419.5v-31" style="fill:gray"/><path d="M21.5,388v31A64.5,64.5,0,0,1-43,483.5H-237A64.5,64.5,0,0,1-301.5,419V388" style="fill:gray"/><path d="M21,387.5v31A64.5,64.5,0,0,1-43.5,483h-194A64.5,64.5,0,0,1-302,418.5v-31" style="fill:gray"/><path d="M20.5,387v31A64.5,64.5,0,0,1-44,482.5H-238A64.5,64.5,0,0,1-302.5,418V387" style="fill:gray"/><path d="M20,386.5v31A64.5,64.5,0,0,1-44.5,482h-194A64.5,64.5,0,0,1-303,417.5v-31" style="fill:gray"/><path d="M19.5,386v31A64.5,64.5,0,0,1-45,481.5H-239A64.5,64.5,0,0,1-303.5,417V386" style="fill:gray"/><path d="M19,385.5v31A64.5,64.5,0,0,1-45.5,481h-194A64.5,64.5,0,0,1-304,416.5v-31" style="fill:gray"/><path d="M18.5,385v31A64.5,64.5,0,0,1-46,480.5H-240A64.5,64.5,0,0,1-304.5,416V385" style="fill:gray"/><path d="M18,384.5v31A64.5,64.5,0,0,1-46.5,480h-194A64.5,64.5,0,0,1-305,415.5v-31" style="fill:gray"/><path d="M17.5,384v31A64.5,64.5,0,0,1-47,479.5H-241A64.5,64.5,0,0,1-305.5,415V384" style="fill:gray"/><path d="M17,383.5v31A64.5,64.5,0,0,1-47.5,479h-194A64.5,64.5,0,0,1-306,414.5v-31" style="fill:gray"/><path d="M16.5,383v31A64.5,64.5,0,0,1-48,478.5H-242A64.5,64.5,0,0,1-306.5,414V383" style="fill:gray"/><path d="M16,382.5v31A64.5,64.5,0,0,1-48.5,478h-194A64.5,64.5,0,0,1-307,413.5v-31" style="fill:gray"/><path d="M15.5,382v31A64.5,64.5,0,0,1-49,477.5H-243A64.5,64.5,0,0,1-307.5,413V382" style="fill:gray"/><path d="M15,381.5v31A64.5,64.5,0,0,1-49.5,477h-194A64.5,64.5,0,0,1-308,412.5v-31" style="fill:gray"/><path d="M14.5,381v31A64.5,64.5,0,0,1-50,476.5H-244A64.5,64.5,0,0,1-308.5,412V381" style="fill:gray"/><path d="M14,380.5v31A64.5,64.5,0,0,1-50.5,476h-194A64.5,64.5,0,0,1-309,411.5v-31" style="fill:gray"/><path d="M13.5,380v31A64.5,64.5,0,0,1-51,475.5H-245A64.5,64.5,0,0,1-309.5,411V380" style="fill:gray"/><path d="M13,379.5v31A64.5,64.5,0,0,1-51.5,475h-194A64.5,64.5,0,0,1-310,410.5v-31" style="fill:gray"/><path d="M12.5,379v31A64.5,64.5,0,0,1-52,474.5H-246A64.5,64.5,0,0,1-310.5,410V379" style="fill:gray"/><path d="M12,378.5v31A64.5,64.5,0,0,1-52.5,474h-194A64.5,64.5,0,0,1-311,409.5v-31" style="fill:gray"/><path d="M11.5,378v31A64.5,64.5,0,0,1-53,473.5H-247A64.5,64.5,0,0,1-311.5,409V378" style="fill:gray"/><path d="M11,377.5v31A64.5,64.5,0,0,1-53.5,473h-194A64.5,64.5,0,0,1-312,408.5v-31" style="fill:gray"/><path d="M10.5,377v31A64.5,64.5,0,0,1-54,472.5H-248A64.5,64.5,0,0,1-312.5,408V377" style="fill:gray"/><path d="M10,376.5v31A64.5,64.5,0,0,1-54.5,472h-194A64.5,64.5,0,0,1-313,407.5v-31" style="fill:gray"/><path d="M9.5,376v31A64.5,64.5,0,0,1-55,471.5H-249A64.5,64.5,0,0,1-313.5,407V376" style="fill:gray"/><path d="M9,375.5v31A64.5,64.5,0,0,1-55.5,471h-194A64.5,64.5,0,0,1-314,406.5v-31" style="fill:gray"/><path d="M8.5,375v31A64.5,64.5,0,0,1-56,470.5H-250A64.5,64.5,0,0,1-314.5,406V375" style="fill:gray"/><path d="M8,374.5v31A64.5,64.5,0,0,1-56.5,470h-194A64.5,64.5,0,0,1-315,405.5v-31" style="fill:gray"/><path d="M7.5,374v31A64.5,64.5,0,0,1-57,469.5H-251A64.5,64.5,0,0,1-315.5,405V374" style="fill:gray"/><path d="M7,373.5v31A64.5,64.5,0,0,1-57.5,469h-194A64.5,64.5,0,0,1-316,404.5v-31" style="fill:gray"/><path d="M6.5,373v31A64.5,64.5,0,0,1-58,468.5H-252A64.5,64.5,0,0,1-316.5,404V373" style="fill:gray"/><path d="M6,372.5v31A64.5,64.5,0,0,1-58.5,468h-194A64.5,64.5,0,0,1-317,403.5v-31" style="fill:gray"/><path d="M5.5,372v31A64.5,64.5,0,0,1-59,467.5H-253A64.5,64.5,0,0,1-317.5,403V372" style="fill:gray"/><path d="M5,371.5v31A64.5,64.5,0,0,1-59.5,467h-194A64.5,64.5,0,0,1-318,402.5v-31" style="fill:gray"/><path d="M4.5,371v31A64.5,64.5,0,0,1-60,466.5H-254A64.5,64.5,0,0,1-318.5,402V371" style="fill:gray"/><path d="M4,370.5v31A64.5,64.5,0,0,1-60.5,466h-194A64.5,64.5,0,0,1-319,401.5v-31" style="fill:gray"/><path d="M3.5,370v31A64.5,64.5,0,0,1-61,465.5H-255A64.5,64.5,0,0,1-319.5,401V370" style="fill:gray"/><path d="M3,369.5v31A64.5,64.5,0,0,1-61.5,465h-194A64.5,64.5,0,0,1-320,400.5v-31" style="fill:gray"/><path d="M2.5,369v31A64.5,64.5,0,0,1-62,464.5H-256A64.5,64.5,0,0,1-320.5,400V369" style="fill:gray"/><path d="M2,368.5v31A64.5,64.5,0,0,1-62.5,464h-194A64.5,64.5,0,0,1-321,399.5v-31" style="fill:gray"/><path d="M1.5,368v31A64.5,64.5,0,0,1-63,463.5H-257A64.5,64.5,0,0,1-321.5,399V368" style="fill:gray"/><path d="M1,367.5v31A64.5,64.5,0,0,1-63.5,463h-194A64.5,64.5,0,0,1-322,398.5v-31" style="fill:gray"/><path d="M.5,367v31A64.5,64.5,0,0,1-64,462.5H-258A64.5,64.5,0,0,1-322.5,398V367" style="fill:gray"/></g></g><g style="clip-path:url(#clip-path-2)"><circle cx="250" cy="246" r="245" style="fill:#2be1fc"/><g style="mix-blend-mode:multiply"><path d="M442,498H278.6A18.6,18.6,0,0,1,260,479.4V409.6A18.6,18.6,0,0,1,278.6,391H442Z" style="fill:#666"/><path d="M441.5,497.5H278.1a18.6,18.6,0,0,1-18.6-18.6V409.1a18.6,18.6,0,0,1,18.6-18.6H441.5Z" style="fill:#666"/><path d="M441,497H277.6A18.6,18.6,0,0,1,259,478.4V408.6A18.6,18.6,0,0,1,277.6,390H441Z" style="fill:#666"/><path d="M440.5,496.5H277.1a18.6,18.6,0,0,1-18.6-18.6V408.1a18.6,18.6,0,0,1,18.6-18.6H440.5Z" style="fill:#666"/><path d="M440,496H276.6A18.6,18.6,0,0,1,258,477.4V407.6A18.6,18.6,0,0,1,276.6,389H440Z" style="fill:#666"/><path d="M439.5,495.5H276.1a18.6,18.6,0,0,1-18.6-18.6V407.1a18.6,18.6,0,0,1,18.6-18.6H439.5Z" style="fill:#666"/><path d="M439,495H275.6A18.6,18.6,0,0,1,257,476.4V406.6A18.6,18.6,0,0,1,275.6,388H439Z" style="fill:#666"/><path d="M438.5,494.5H275.1a18.6,18.6,0,0,1-18.6-18.6V406.1a18.6,18.6,0,0,1,18.6-18.6H438.5Z" style="fill:#666"/><path d="M438,494H274.6A18.6,18.6,0,0,1,256,475.4V405.6A18.6,18.6,0,0,1,274.6,387H438Z" style="fill:#666"/><path d="M437.5,493.5H274.1a18.6,18.6,0,0,1-18.6-18.6V405.1a18.6,18.6,0,0,1,18.6-18.6H437.5Z" style="fill:#666"/><path d="M437,493H273.6A18.6,18.6,0,0,1,255,474.4V404.6A18.6,18.6,0,0,1,273.6,386H437Z" style="fill:#666"/><path d="M436.5,492.5H273.1a18.6,18.6,0,0,1-18.6-18.6V404.1a18.6,18.6,0,0,1,18.6-18.6H436.5Z" style="fill:#666"/><path d="M436,492H272.6A18.6,18.6,0,0,1,254,473.4V403.6A18.6,18.6,0,0,1,272.6,385H436Z" style="fill:#666"/><path d="M435.5,491.5H272.1a18.6,18.6,0,0,1-18.6-18.6V403.1a18.6,18.6,0,0,1,18.6-18.6H435.5Z" style="fill:#666"/><path d="M435,491H271.6A18.6,18.6,0,0,1,253,472.4V402.6A18.6,18.6,0,0,1,271.6,384H435Z" style="fill:#666"/><path d="M434.5,490.5H271.1a18.6,18.6,0,0,1-18.6-18.6V402.1a18.6,18.6,0,0,1,18.6-18.6H434.5Z" style="fill:#666"/><path d="M434,490H270.6A18.6,18.6,0,0,1,252,471.4V401.6A18.6,18.6,0,0,1,270.6,383H434Z" style="fill:#666"/><path d="M433.5,489.5H270.1a18.6,18.6,0,0,1-18.6-18.6V401.1a18.6,18.6,0,0,1,18.6-18.6H433.5Z" style="fill:#666"/><path d="M433,489H269.6A18.6,18.6,0,0,1,251,470.4V400.6A18.6,18.6,0,0,1,269.6,382H433Z" style="fill:#666"/><path d="M432.5,488.5H269.1a18.6,18.6,0,0,1-18.6-18.6V400.1a18.6,18.6,0,0,1,18.6-18.6H432.5Z" style="fill:#666"/><path d="M432,488H268.6A18.6,18.6,0,0,1,250,469.4V399.6A18.6,18.6,0,0,1,268.6,381H432Z" style="fill:#666"/><path d="M431.5,487.5H268.1a18.6,18.6,0,0,1-18.6-18.6V399.1a18.6,18.6,0,0,1,18.6-18.6H431.5Z" style="fill:#666"/><path d="M431,487H267.6A18.6,18.6,0,0,1,249,468.4V398.6A18.6,18.6,0,0,1,267.6,380H431Z" style="fill:#666"/><path d="M430.5,486.5H267.1a18.6,18.6,0,0,1-18.6-18.6V398.1a18.6,18.6,0,0,1,18.6-18.6H430.5Z" style="fill:#666"/><path d="M430,486H266.6A18.6,18.6,0,0,1,248,467.4V397.6A18.6,18.6,0,0,1,266.6,379H430Z" style="fill:#666"/><path d="M429.5,485.5H266.1a18.6,18.6,0,0,1-18.6-18.6V397.1a18.6,18.6,0,0,1,18.6-18.6H429.5Z" style="fill:#666"/><path d="M429,485H265.6A18.6,18.6,0,0,1,247,466.4V396.6A18.6,18.6,0,0,1,265.6,378H429Z" style="fill:#666"/><path d="M428.5,484.5H265.1a18.6,18.6,0,0,1-18.6-18.6V396.1a18.6,18.6,0,0,1,18.6-18.6H428.5Z" style="fill:#666"/><path d="M428,484H264.6A18.6,18.6,0,0,1,246,465.4V395.6A18.6,18.6,0,0,1,264.6,377H428Z" style="fill:#666"/><path d="M427.5,483.5H264.1a18.6,18.6,0,0,1-18.6-18.6V395.1a18.6,18.6,0,0,1,18.6-18.6H427.5Z" style="fill:#666"/><path d="M427,483H263.6A18.6,18.6,0,0,1,245,464.4V394.6A18.6,18.6,0,0,1,263.6,376H427Z" style="fill:#666"/><path d="M426.5,482.5H263.1a18.6,18.6,0,0,1-18.6-18.6V394.1a18.6,18.6,0,0,1,18.6-18.6H426.5Z" style="fill:#666"/><path d="M426,482H262.6A18.6,18.6,0,0,1,244,463.4V393.6A18.6,18.6,0,0,1,262.6,375H426Z" style="fill:#666"/><path d="M425.5,481.5H262.1a18.6,18.6,0,0,1-18.6-18.6V393.1a18.6,18.6,0,0,1,18.6-18.6H425.5Z" style="fill:#666"/><path d="M425,481H261.6A18.6,18.6,0,0,1,243,462.4V392.6A18.6,18.6,0,0,1,261.6,374H425Z" style="fill:#666"/><path d="M424.5,480.5H261.1a18.6,18.6,0,0,1-18.6-18.6V392.1a18.6,18.6,0,0,1,18.6-18.6H424.5Z" style="fill:#666"/><path d="M424,480H260.6A18.6,18.6,0,0,1,242,461.4V391.6A18.6,18.6,0,0,1,260.6,373H424Z" style="fill:#666"/><path d="M423.5,479.5H260.1a18.6,18.6,0,0,1-18.6-18.6V391.1a18.6,18.6,0,0,1,18.6-18.6H423.5Z" style="fill:#666"/><path d="M423,479H259.6A18.6,18.6,0,0,1,241,460.4V390.6A18.6,18.6,0,0,1,259.6,372H423Z" style="fill:#666"/><path d="M422.5,478.5H259.1a18.6,18.6,0,0,1-18.6-18.6V390.1a18.6,18.6,0,0,1,18.6-18.6H422.5Z" style="fill:#666"/><path d="M422,478H258.6A18.6,18.6,0,0,1,240,459.4V389.6A18.6,18.6,0,0,1,258.6,371H422Z" style="fill:#666"/><path d="M421.5,477.5H258.1a18.6,18.6,0,0,1-18.6-18.6V389.1a18.6,18.6,0,0,1,18.6-18.6H421.5Z" style="fill:#666"/><path d="M421,477H257.6A18.6,18.6,0,0,1,239,458.4V388.6A18.6,18.6,0,0,1,257.6,370H421Z" style="fill:#666"/><path d="M420.5,476.5H257.1a18.6,18.6,0,0,1-18.6-18.6V388.1a18.6,18.6,0,0,1,18.6-18.6H420.5Z" style="fill:#666"/><path d="M420,476H256.6A18.6,18.6,0,0,1,238,457.4V387.6A18.6,18.6,0,0,1,256.6,369H420Z" style="fill:#666"/><path d="M419.5,475.5H256.1a18.6,18.6,0,0,1-18.6-18.6V387.1a18.6,18.6,0,0,1,18.6-18.6H419.5Z" style="fill:#666"/><path d="M419,475H255.6A18.6,18.6,0,0,1,237,456.4V386.6A18.6,18.6,0,0,1,255.6,368H419Z" style="fill:#666"/><path d="M418.5,474.5H255.1a18.6,18.6,0,0,1-18.6-18.6V386.1a18.6,18.6,0,0,1,18.6-18.6H418.5Z" style="fill:#666"/><path d="M418,474H254.6A18.6,18.6,0,0,1,236,455.4V385.6A18.6,18.6,0,0,1,254.6,367H418Z" style="fill:#666"/><path d="M417.5,473.5H254.1a18.6,18.6,0,0,1-18.6-18.6V385.1a18.6,18.6,0,0,1,18.6-18.6H417.5Z" style="fill:#666"/><path d="M417,473H253.6A18.6,18.6,0,0,1,235,454.4V384.6A18.6,18.6,0,0,1,253.6,366H417Z" style="fill:#666"/><path d="M416.5,472.5H253.1a18.6,18.6,0,0,1-18.6-18.6V384.1a18.6,18.6,0,0,1,18.6-18.6H416.5Z" style="fill:#666"/><path d="M416,472H252.6A18.6,18.6,0,0,1,234,453.4V383.6A18.6,18.6,0,0,1,252.6,365H416Z" style="fill:#666"/><path d="M415.5,471.5H252.1a18.6,18.6,0,0,1-18.6-18.6V383.1a18.6,18.6,0,0,1,18.6-18.6H415.5Z" style="fill:#666"/><path d="M415,471H251.6A18.6,18.6,0,0,1,233,452.4V382.6A18.6,18.6,0,0,1,251.6,364H415Z" style="fill:#666"/><path d="M414.5,470.5H251.1a18.6,18.6,0,0,1-18.6-18.6V382.1a18.6,18.6,0,0,1,18.6-18.6H414.5Z" style="fill:#666"/><path d="M414,470H250.6A18.6,18.6,0,0,1,232,451.4V381.6A18.6,18.6,0,0,1,250.6,363H414Z" style="fill:#666"/><path d="M413.5,469.5H250.1a18.6,18.6,0,0,1-18.6-18.6V381.1a18.6,18.6,0,0,1,18.6-18.6H413.5Z" style="fill:#666"/><path d="M413,469H249.6A18.6,18.6,0,0,1,231,450.4V380.6A18.6,18.6,0,0,1,249.6,362H413Z" style="fill:#666"/><path d="M412.5,468.5H249.1a18.6,18.6,0,0,1-18.6-18.6V380.1a18.6,18.6,0,0,1,18.6-18.6H412.5Z" style="fill:#666"/><path d="M412,468H248.6A18.6,18.6,0,0,1,230,449.4V379.6A18.6,18.6,0,0,1,248.6,361H412Z" style="fill:#666"/><path d="M411.5,467.5H248.1a18.6,18.6,0,0,1-18.6-18.6V379.1a18.6,18.6,0,0,1,18.6-18.6H411.5Z" style="fill:#666"/><path d="M411,467H247.6A18.6,18.6,0,0,1,229,448.4V378.6A18.6,18.6,0,0,1,247.6,360H411Z" style="fill:#666"/><path d="M410.5,466.5H247.1a18.6,18.6,0,0,1-18.6-18.6V378.1a18.6,18.6,0,0,1,18.6-18.6H410.5Z" style="fill:#666"/><path d="M410,466H246.6A18.6,18.6,0,0,1,228,447.4V377.6A18.6,18.6,0,0,1,246.6,359H410Z" style="fill:#666"/><path d="M409.5,465.5H246.1a18.6,18.6,0,0,1-18.6-18.6V377.1a18.6,18.6,0,0,1,18.6-18.6H409.5Z" style="fill:#666"/><path d="M409,465H245.6A18.6,18.6,0,0,1,227,446.4V376.6A18.6,18.6,0,0,1,245.6,358H409Z" style="fill:#666"/><path d="M408.5,464.5H245.1a18.6,18.6,0,0,1-18.6-18.6V376.1a18.6,18.6,0,0,1,18.6-18.6H408.5Z" style="fill:#666"/><path d="M408,464H244.6A18.6,18.6,0,0,1,226,445.4V375.6A18.6,18.6,0,0,1,244.6,357H408Z" style="fill:#666"/><path d="M407.5,463.5H244.1a18.6,18.6,0,0,1-18.6-18.6V375.1a18.6,18.6,0,0,1,18.6-18.6H407.5Z" style="fill:#666"/><path d="M407,463H243.6A18.6,18.6,0,0,1,225,444.4V374.6A18.6,18.6,0,0,1,243.6,356H407Z" style="fill:#666"/><path d="M406.5,462.5H243.1a18.6,18.6,0,0,1-18.6-18.6V374.1a18.6,18.6,0,0,1,18.6-18.6H406.5Z" style="fill:#666"/><path d="M406,462H242.6A18.6,18.6,0,0,1,224,443.4V373.6A18.6,18.6,0,0,1,242.6,355H406Z" style="fill:#666"/><path d="M405.5,461.5H242.1a18.6,18.6,0,0,1-18.6-18.6V373.1a18.6,18.6,0,0,1,18.6-18.6H405.5Z" style="fill:#666"/><path d="M405,461H241.6A18.6,18.6,0,0,1,223,442.4V372.6A18.6,18.6,0,0,1,241.6,354H405Z" style="fill:#666"/><path d="M404.5,460.5H241.1a18.6,18.6,0,0,1-18.6-18.6V372.1a18.6,18.6,0,0,1,18.6-18.6H404.5Z" style="fill:#666"/><path d="M404,460H240.6A18.6,18.6,0,0,1,222,441.4V371.6A18.6,18.6,0,0,1,240.6,353H404Z" style="fill:#666"/><path d="M403.5,459.5H240.1a18.6,18.6,0,0,1-18.6-18.6V371.1a18.6,18.6,0,0,1,18.6-18.6H403.5Z" style="fill:#666"/><path d="M403,459H239.6A18.6,18.6,0,0,1,221,440.4V370.6A18.6,18.6,0,0,1,239.6,352H403Z" style="fill:#666"/><path d="M402.5,458.5H239.1a18.6,18.6,0,0,1-18.6-18.6V370.1a18.6,18.6,0,0,1,18.6-18.6H402.5Z" style="fill:#666"/><path d="M402,458H238.6A18.6,18.6,0,0,1,220,439.4V369.6A18.6,18.6,0,0,1,238.6,351H402Z" style="fill:#666"/><path d="M401.5,457.5H238.1a18.6,18.6,0,0,1-18.6-18.6V369.1a18.6,18.6,0,0,1,18.6-18.6H401.5Z" style="fill:#666"/><path d="M401,457H237.6A18.6,18.6,0,0,1,219,438.4V368.6A18.6,18.6,0,0,1,237.6,350H401Z" style="fill:#666"/><path d="M400.5,456.5H237.1a18.6,18.6,0,0,1-18.6-18.6V368.1a18.6,18.6,0,0,1,18.6-18.6H400.5Z" style="fill:#666"/><path d="M400,456H236.6A18.6,18.6,0,0,1,218,437.4V367.6A18.6,18.6,0,0,1,236.6,349H400Z" style="fill:#666"/><path d="M399.5,455.5H236.1a18.6,18.6,0,0,1-18.6-18.6V367.1a18.6,18.6,0,0,1,18.6-18.6H399.5Z" style="fill:#666"/><path d="M399,455H235.6A18.6,18.6,0,0,1,217,436.4V366.6A18.6,18.6,0,0,1,235.6,348H399Z" style="fill:#666"/><path d="M398.5,454.5H235.1a18.6,18.6,0,0,1-18.6-18.6V366.1a18.6,18.6,0,0,1,18.6-18.6H398.5Z" style="fill:#666"/><path d="M398,454H234.6A18.6,18.6,0,0,1,216,435.4V365.6A18.6,18.6,0,0,1,234.6,347H398Z" style="fill:#666"/><path d="M397.5,453.5H234.1a18.6,18.6,0,0,1-18.6-18.6V365.1a18.6,18.6,0,0,1,18.6-18.6H397.5Z" style="fill:#666"/><path d="M397,453H233.6A18.6,18.6,0,0,1,215,434.4V364.6A18.6,18.6,0,0,1,233.6,346H397Z" style="fill:#666"/><path d="M396.5,452.5H233.1a18.6,18.6,0,0,1-18.6-18.6V364.1a18.6,18.6,0,0,1,18.6-18.6H396.5Z" style="fill:#666"/><path d="M396,452H232.6A18.6,18.6,0,0,1,214,433.4V363.6A18.6,18.6,0,0,1,232.6,345H396Z" style="fill:#666"/><path d="M395.5,451.5H232.1a18.6,18.6,0,0,1-18.6-18.6V363.1a18.6,18.6,0,0,1,18.6-18.6H395.5Z" style="fill:#666"/><path d="M395,451H231.6A18.6,18.6,0,0,1,213,432.4V362.6A18.6,18.6,0,0,1,231.6,344H395Z" style="fill:#666"/><path d="M394.5,450.5H231.1a18.6,18.6,0,0,1-18.6-18.6V362.1a18.6,18.6,0,0,1,18.6-18.6H394.5Z" style="fill:#666"/><path d="M394,450H230.6A18.6,18.6,0,0,1,212,431.4V361.6A18.6,18.6,0,0,1,230.6,343H394Z" style="fill:#666"/><path d="M393.5,449.5H230.1a18.6,18.6,0,0,1-18.6-18.6V361.1a18.6,18.6,0,0,1,18.6-18.6H393.5Z" style="fill:#666"/><path d="M393,449H229.6A18.6,18.6,0,0,1,211,430.4V360.6A18.6,18.6,0,0,1,229.6,342H393Z" style="fill:#666"/><path d="M392.5,448.5H229.1a18.6,18.6,0,0,1-18.6-18.6V360.1a18.6,18.6,0,0,1,18.6-18.6H392.5Z" style="fill:#666"/><path d="M392,448H228.6A18.6,18.6,0,0,1,210,429.4V359.6A18.6,18.6,0,0,1,228.6,341H392Z" style="fill:#666"/><path d="M391.5,447.5H228.1a18.6,18.6,0,0,1-18.6-18.6V359.1a18.6,18.6,0,0,1,18.6-18.6H391.5Z" style="fill:#666"/><path d="M391,447H227.6A18.6,18.6,0,0,1,209,428.4V358.6A18.6,18.6,0,0,1,227.6,340H391Z" style="fill:#666"/><path d="M390.5,446.5H227.1a18.6,18.6,0,0,1-18.6-18.6V358.1a18.6,18.6,0,0,1,18.6-18.6H390.5Z" style="fill:#666"/><path d="M390,446H226.6A18.6,18.6,0,0,1,208,427.4V357.6A18.6,18.6,0,0,1,226.6,339H390Z" style="fill:#666"/><path d="M389.5,445.5H226.1a18.6,18.6,0,0,1-18.6-18.6V357.1a18.6,18.6,0,0,1,18.6-18.6H389.5Z" style="fill:#666"/><path d="M389,445H225.6A18.6,18.6,0,0,1,207,426.4V356.6A18.6,18.6,0,0,1,225.6,338H389Z" style="fill:#666"/><path d="M388.5,444.5H225.1a18.6,18.6,0,0,1-18.6-18.6V356.1a18.6,18.6,0,0,1,18.6-18.6H388.5Z" style="fill:#666"/><path d="M388,444H224.6A18.6,18.6,0,0,1,206,425.4V355.6A18.6,18.6,0,0,1,224.6,337H388Z" style="fill:#666"/><path d="M387.5,443.5H224.1a18.6,18.6,0,0,1-18.6-18.6V355.1a18.6,18.6,0,0,1,18.6-18.6H387.5Z" style="fill:#666"/><path d="M387,443H223.6A18.6,18.6,0,0,1,205,424.4V354.6A18.6,18.6,0,0,1,223.6,336H387Z" style="fill:#666"/><path d="M386.5,442.5H223.1a18.6,18.6,0,0,1-18.6-18.6V354.1a18.6,18.6,0,0,1,18.6-18.6H386.5Z" style="fill:#666"/><path d="M386,442H222.6A18.6,18.6,0,0,1,204,423.4V353.6A18.6,18.6,0,0,1,222.6,335H386Z" style="fill:#666"/><path d="M385.5,441.5H222.1a18.6,18.6,0,0,1-18.6-18.6V353.1a18.6,18.6,0,0,1,18.6-18.6H385.5Z" style="fill:#666"/><path d="M385,441H221.6A18.6,18.6,0,0,1,203,422.4V352.6A18.6,18.6,0,0,1,221.6,334H385Z" style="fill:#666"/><path d="M384.5,440.5H221.1a18.6,18.6,0,0,1-18.6-18.6V352.1a18.6,18.6,0,0,1,18.6-18.6H384.5Z" style="fill:#666"/><path d="M384,440H220.6A18.6,18.6,0,0,1,202,421.4V351.6A18.6,18.6,0,0,1,220.6,333H384Z" style="fill:#666"/><path d="M383.5,439.5H220.1a18.6,18.6,0,0,1-18.6-18.6V351.1a18.6,18.6,0,0,1,18.6-18.6H383.5Z" style="fill:#666"/><path d="M383,439H219.6A18.6,18.6,0,0,1,201,420.4V350.6A18.6,18.6,0,0,1,219.6,332H383Z" style="fill:#666"/><path d="M382.5,438.5H219.1a18.6,18.6,0,0,1-18.6-18.6V350.1a18.6,18.6,0,0,1,18.6-18.6H382.5Z" style="fill:#666"/><path d="M382,438H218.6A18.6,18.6,0,0,1,200,419.4V349.6A18.6,18.6,0,0,1,218.6,331H382Z" style="fill:#666"/><path d="M381.5,437.5H218.1a18.6,18.6,0,0,1-18.6-18.6V349.1a18.6,18.6,0,0,1,18.6-18.6H381.5Z" style="fill:#666"/><path d="M381,437H217.6A18.6,18.6,0,0,1,199,418.4V348.6A18.6,18.6,0,0,1,217.6,330H381Z" style="fill:#666"/><path d="M380.5,436.5H217.1a18.6,18.6,0,0,1-18.6-18.6V348.1a18.6,18.6,0,0,1,18.6-18.6H380.5Z" style="fill:#666"/><path d="M380,436H216.6A18.6,18.6,0,0,1,198,417.4V347.6A18.6,18.6,0,0,1,216.6,329H380Z" style="fill:#666"/><path d="M379.5,435.5H216.1a18.6,18.6,0,0,1-18.6-18.6V347.1a18.6,18.6,0,0,1,18.6-18.6H379.5Z" style="fill:#666"/><path d="M379,435H215.6A18.6,18.6,0,0,1,197,416.4V346.6A18.6,18.6,0,0,1,215.6,328H379Z" style="fill:#666"/><path d="M378.5,434.5H215.1a18.6,18.6,0,0,1-18.6-18.6V346.1a18.6,18.6,0,0,1,18.6-18.6H378.5Z" style="fill:#666"/><path d="M378,434H214.6A18.6,18.6,0,0,1,196,415.4V345.6A18.6,18.6,0,0,1,214.6,327H378Z" style="fill:#666"/><path d="M377.5,433.5H214.1a18.6,18.6,0,0,1-18.6-18.6V345.1a18.6,18.6,0,0,1,18.6-18.6H377.5Z" style="fill:#666"/><path d="M377,433H213.6A18.6,18.6,0,0,1,195,414.4V344.6A18.6,18.6,0,0,1,213.6,326H377Z" style="fill:#666"/><path d="M376.5,432.5H213.1a18.6,18.6,0,0,1-18.6-18.6V344.1a18.6,18.6,0,0,1,18.6-18.6H376.5Z" style="fill:#666"/><path d="M376,432H212.6A18.6,18.6,0,0,1,194,413.4V343.6A18.6,18.6,0,0,1,212.6,325H376Z" style="fill:#666"/><path d="M375.5,431.5H212.1a18.6,18.6,0,0,1-18.6-18.6V343.1a18.6,18.6,0,0,1,18.6-18.6H375.5Z" style="fill:#666"/><path d="M375,431H211.6A18.6,18.6,0,0,1,193,412.4V342.6A18.6,18.6,0,0,1,211.6,324H375Z" style="fill:#666"/><path d="M374.5,430.5H211.1a18.6,18.6,0,0,1-18.6-18.6V342.1a18.6,18.6,0,0,1,18.6-18.6H374.5Z" style="fill:#666"/><path d="M374,430H210.6A18.6,18.6,0,0,1,192,411.4V341.6A18.6,18.6,0,0,1,210.6,323H374Z" style="fill:#666"/><path d="M373.5,429.5H210.1a18.6,18.6,0,0,1-18.6-18.6V341.1a18.6,18.6,0,0,1,18.6-18.6H373.5Z" style="fill:#666"/><path d="M373,429H209.6A18.6,18.6,0,0,1,191,410.4V340.6A18.6,18.6,0,0,1,209.6,322H373Z" style="fill:#666"/><path d="M372.5,428.5H209.1a18.6,18.6,0,0,1-18.6-18.6V340.1a18.6,18.6,0,0,1,18.6-18.6H372.5Z" style="fill:#666"/><path d="M372,428H208.6A18.6,18.6,0,0,1,190,409.4V339.6A18.6,18.6,0,0,1,208.6,321H372Z" style="fill:#666"/><path d="M371.5,427.5H208.1a18.6,18.6,0,0,1-18.6-18.6V339.1a18.6,18.6,0,0,1,18.6-18.6H371.5Z" style="fill:#666"/><path d="M371,427H207.6A18.6,18.6,0,0,1,189,408.4V338.6A18.6,18.6,0,0,1,207.6,320H371Z" style="fill:#666"/><path d="M370.5,426.5H207.1a18.6,18.6,0,0,1-18.6-18.6V338.1a18.6,18.6,0,0,1,18.6-18.6H370.5Z" style="fill:#666"/><path d="M370,426H206.6A18.6,18.6,0,0,1,188,407.4V337.6A18.6,18.6,0,0,1,206.6,319H370Z" style="fill:#666"/><path d="M369.5,425.5H206.1a18.6,18.6,0,0,1-18.6-18.6V337.1a18.6,18.6,0,0,1,18.6-18.6H369.5Z" style="fill:#666"/><path d="M369,425H205.6A18.6,18.6,0,0,1,187,406.4V336.6A18.6,18.6,0,0,1,205.6,318H369Z" style="fill:#666"/><path d="M368.5,424.5H205.1a18.6,18.6,0,0,1-18.6-18.6V336.1a18.6,18.6,0,0,1,18.6-18.6H368.5Z" style="fill:#666"/><path d="M368,424H204.6A18.6,18.6,0,0,1,186,405.4V335.6A18.6,18.6,0,0,1,204.6,317H368Z" style="fill:#666"/><path d="M367.5,423.5H204.1a18.6,18.6,0,0,1-18.6-18.6V335.1a18.6,18.6,0,0,1,18.6-18.6H367.5Z" style="fill:#666"/><path d="M367,423H203.6A18.6,18.6,0,0,1,185,404.4V334.6A18.6,18.6,0,0,1,203.6,316H367Z" style="fill:#666"/><path d="M366.5,422.5H203.1a18.6,18.6,0,0,1-18.6-18.6V334.1a18.6,18.6,0,0,1,18.6-18.6H366.5Z" style="fill:#666"/><path d="M366,422H202.6A18.6,18.6,0,0,1,184,403.4V333.6A18.6,18.6,0,0,1,202.6,315H366Z" style="fill:#666"/><path d="M365.5,421.5H202.1a18.6,18.6,0,0,1-18.6-18.6V333.1a18.6,18.6,0,0,1,18.6-18.6H365.5Z" style="fill:#666"/><path d="M365,421H201.6A18.6,18.6,0,0,1,183,402.4V332.6A18.6,18.6,0,0,1,201.6,314H365Z" style="fill:#666"/><path d="M364.5,420.5H201.1a18.6,18.6,0,0,1-18.6-18.6V332.1a18.6,18.6,0,0,1,18.6-18.6H364.5Z" style="fill:#666"/><path d="M364,420H200.6A18.6,18.6,0,0,1,182,401.4V331.6A18.6,18.6,0,0,1,200.6,313H364Z" style="fill:#666"/><path d="M363.5,419.5H200.1a18.6,18.6,0,0,1-18.6-18.6V331.1a18.6,18.6,0,0,1,18.6-18.6H363.5Z" style="fill:#666"/><path d="M363,419H199.6A18.6,18.6,0,0,1,181,400.4V330.6A18.6,18.6,0,0,1,199.6,312H363Z" style="fill:#666"/><path d="M362.5,418.5H199.1a18.6,18.6,0,0,1-18.6-18.6V330.1a18.6,18.6,0,0,1,18.6-18.6H362.5Z" style="fill:#666"/><path d="M362,418H198.6A18.6,18.6,0,0,1,180,399.4V329.6A18.6,18.6,0,0,1,198.6,311H362Z" style="fill:#666"/><path d="M361.5,417.5H198.1a18.6,18.6,0,0,1-18.6-18.6V329.1a18.6,18.6,0,0,1,18.6-18.6H361.5Z" style="fill:#666"/><path d="M361,417H197.6A18.6,18.6,0,0,1,179,398.4V328.6A18.6,18.6,0,0,1,197.6,310H361Z" style="fill:#666"/><path d="M360.5,416.5H197.1a18.6,18.6,0,0,1-18.6-18.6V328.1a18.6,18.6,0,0,1,18.6-18.6H360.5Z" style="fill:#666"/><path d="M360,416H196.6A18.6,18.6,0,0,1,178,397.4V327.6A18.6,18.6,0,0,1,196.6,309H360Z" style="fill:#666"/><path d="M359.5,415.5H196.1a18.6,18.6,0,0,1-18.6-18.6V327.1a18.6,18.6,0,0,1,18.6-18.6H359.5Z" style="fill:#666"/><path d="M359,415H195.6A18.6,18.6,0,0,1,177,396.4V326.6A18.6,18.6,0,0,1,195.6,308H359Z" style="fill:#666"/><path d="M358.5,414.5H195.1a18.6,18.6,0,0,1-18.6-18.6V326.1a18.6,18.6,0,0,1,18.6-18.6H358.5Z" style="fill:#666"/><path d="M358,414H194.6A18.6,18.6,0,0,1,176,395.4V325.6A18.6,18.6,0,0,1,194.6,307H358Z" style="fill:#666"/><path d="M357.5,413.5H194.1a18.6,18.6,0,0,1-18.6-18.6V325.1a18.6,18.6,0,0,1,18.6-18.6H357.5Z" style="fill:#666"/><path d="M357,413H193.6A18.6,18.6,0,0,1,175,394.4V324.6A18.6,18.6,0,0,1,193.6,306H357Z" style="fill:#666"/><path d="M356.5,412.5H193.1a18.6,18.6,0,0,1-18.6-18.6V324.1a18.6,18.6,0,0,1,18.6-18.6H356.5Z" style="fill:#666"/><path d="M356,412H192.6A18.6,18.6,0,0,1,174,393.4V323.6A18.6,18.6,0,0,1,192.6,305H356Z" style="fill:#666"/><path d="M355.5,411.5H192.1a18.6,18.6,0,0,1-18.6-18.6V323.1a18.6,18.6,0,0,1,18.6-18.6H355.5Z" style="fill:#666"/><path d="M355,411H191.6A18.6,18.6,0,0,1,173,392.4V322.6A18.6,18.6,0,0,1,191.6,304H355Z" style="fill:#666"/><path d="M354.5,410.5H191.1a18.6,18.6,0,0,1-18.6-18.6V322.1a18.6,18.6,0,0,1,18.6-18.6H354.5Z" style="fill:#666"/><path d="M354,410H190.6A18.6,18.6,0,0,1,172,391.4V321.6A18.6,18.6,0,0,1,190.6,303H354Z" style="fill:#666"/><path d="M353.5,409.5H190.1a18.6,18.6,0,0,1-18.6-18.6V321.1a18.6,18.6,0,0,1,18.6-18.6H353.5Z" style="fill:#666"/><path d="M353,409H189.6A18.6,18.6,0,0,1,171,390.4V320.6A18.6,18.6,0,0,1,189.6,302H353Z" style="fill:#666"/><path d="M352.5,408.5H189.1a18.6,18.6,0,0,1-18.6-18.6V320.1a18.6,18.6,0,0,1,18.6-18.6H352.5Z" style="fill:#666"/><path d="M352,408H188.6A18.6,18.6,0,0,1,170,389.4V319.6A18.6,18.6,0,0,1,188.6,301H352Z" style="fill:#666"/><path d="M351.5,407.5H188.1a18.6,18.6,0,0,1-18.6-18.6V319.1a18.6,18.6,0,0,1,18.6-18.6H351.5Z" style="fill:#666"/><path d="M351,407H187.6A18.6,18.6,0,0,1,169,388.4V318.6A18.6,18.6,0,0,1,187.6,300H351Z" style="fill:#666"/><path d="M350.5,406.5H187.1a18.6,18.6,0,0,1-18.6-18.6V318.1a18.6,18.6,0,0,1,18.6-18.6H350.5Z" style="fill:#666"/><path d="M350,406H186.6A18.6,18.6,0,0,1,168,387.4V317.6A18.6,18.6,0,0,1,186.6,299H350Z" style="fill:#666"/><path d="M349.5,405.5H186.1a18.6,18.6,0,0,1-18.6-18.6V317.1a18.6,18.6,0,0,1,18.6-18.6H349.5Z" style="fill:#666"/><path d="M349,405H185.6A18.6,18.6,0,0,1,167,386.4V316.6A18.6,18.6,0,0,1,185.6,298H349Z" style="fill:#666"/><path d="M348.5,404.5H185.1a18.6,18.6,0,0,1-18.6-18.6V316.1a18.6,18.6,0,0,1,18.6-18.6H348.5Z" style="fill:#666"/><path d="M348,404H184.6A18.6,18.6,0,0,1,166,385.4V315.6A18.6,18.6,0,0,1,184.6,297H348Z" style="fill:#666"/><path d="M347.5,403.5H184.1a18.6,18.6,0,0,1-18.6-18.6V315.1a18.6,18.6,0,0,1,18.6-18.6H347.5Z" style="fill:#666"/><path d="M347,403H183.6A18.6,18.6,0,0,1,165,384.4V314.6A18.6,18.6,0,0,1,183.6,296H347Z" style="fill:#666"/><path d="M346.5,402.5H183.1a18.6,18.6,0,0,1-18.6-18.6V314.1a18.6,18.6,0,0,1,18.6-18.6H346.5Z" style="fill:#666"/><path d="M346,402H182.6A18.6,18.6,0,0,1,164,383.4V313.6A18.6,18.6,0,0,1,182.6,295H346Z" style="fill:#666"/><path d="M345.5,401.5H182.1a18.6,18.6,0,0,1-18.6-18.6V313.1a18.6,18.6,0,0,1,18.6-18.6H345.5Z" style="fill:#666"/><path d="M345,401H181.6A18.6,18.6,0,0,1,163,382.4V312.6A18.6,18.6,0,0,1,181.6,294H345Z" style="fill:#666"/><path d="M344.5,400.5H181.1a18.6,18.6,0,0,1-18.6-18.6V312.1a18.6,18.6,0,0,1,18.6-18.6H344.5Z" style="fill:#666"/><path d="M344,400H180.6A18.6,18.6,0,0,1,162,381.4V311.6A18.6,18.6,0,0,1,180.6,293H344Z" style="fill:#666"/><path d="M343.5,399.5H180.1a18.6,18.6,0,0,1-18.6-18.6V311.1a18.6,18.6,0,0,1,18.6-18.6H343.5Z" style="fill:#666"/><path d="M343,399H179.6A18.6,18.6,0,0,1,161,380.4V310.6A18.6,18.6,0,0,1,179.6,292H343Z" style="fill:#666"/><path d="M342.5,398.5H179.1a18.6,18.6,0,0,1-18.6-18.6V310.1a18.6,18.6,0,0,1,18.6-18.6H342.5Z" style="fill:#666"/><path d="M342,398H178.6A18.6,18.6,0,0,1,160,379.4V309.6A18.6,18.6,0,0,1,178.6,291H342Z" style="fill:#666"/><path d="M341.5,397.5H178.1a18.6,18.6,0,0,1-18.6-18.6V309.1a18.6,18.6,0,0,1,18.6-18.6H341.5Z" style="fill:#666"/><path d="M341,397H177.6A18.6,18.6,0,0,1,159,378.4V308.6A18.6,18.6,0,0,1,177.6,290H341Z" style="fill:#666"/><path d="M340.5,396.5H177.1a18.6,18.6,0,0,1-18.6-18.6V308.1a18.6,18.6,0,0,1,18.6-18.6H340.5Z" style="fill:#666"/><path d="M340,396H176.6A18.6,18.6,0,0,1,158,377.4V307.6A18.6,18.6,0,0,1,176.6,289H340Z" style="fill:#666"/><path d="M339.5,395.5H176.1a18.6,18.6,0,0,1-18.6-18.6V307.1a18.6,18.6,0,0,1,18.6-18.6H339.5Z" style="fill:#666"/><path d="M339,395H175.6A18.6,18.6,0,0,1,157,376.4V306.6A18.6,18.6,0,0,1,175.6,288H339Z" style="fill:#666"/><path d="M338.5,394.5H175.1a18.6,18.6,0,0,1-18.6-18.6V306.1a18.6,18.6,0,0,1,18.6-18.6H338.5Z" style="fill:#666"/><path d="M338,394H174.6A18.6,18.6,0,0,1,156,375.4V305.6A18.6,18.6,0,0,1,174.6,287H338Z" style="fill:#666"/><path d="M337.5,393.5H174.1a18.6,18.6,0,0,1-18.6-18.6V305.1a18.6,18.6,0,0,1,18.6-18.6H337.5Z" style="fill:#666"/><path d="M337,393H173.6A18.6,18.6,0,0,1,155,374.4V304.6A18.6,18.6,0,0,1,173.6,286H337Z" style="fill:#666"/><path d="M336.5,392.5H173.1a18.6,18.6,0,0,1-18.6-18.6V304.1a18.6,18.6,0,0,1,18.6-18.6H336.5Z" style="fill:#666"/><path d="M336,392H172.6A18.6,18.6,0,0,1,154,373.4V303.6A18.6,18.6,0,0,1,172.6,285H336Z" style="fill:#666"/><path d="M335.5,391.5H172.1a18.6,18.6,0,0,1-18.6-18.6V303.1a18.6,18.6,0,0,1,18.6-18.6H335.5Z" style="fill:#666"/><path d="M335,391H171.6A18.6,18.6,0,0,1,153,372.4V302.6A18.6,18.6,0,0,1,171.6,284H335Z" style="fill:#666"/><path d="M334.5,390.5H171.1a18.6,18.6,0,0,1-18.6-18.6V302.1a18.6,18.6,0,0,1,18.6-18.6H334.5Z" style="fill:#666"/><path d="M334,390H170.6A18.6,18.6,0,0,1,152,371.4V301.6A18.6,18.6,0,0,1,170.6,283H334Z" style="fill:#666"/><path d="M333.5,389.5H170.1a18.6,18.6,0,0,1-18.6-18.6V301.1a18.6,18.6,0,0,1,18.6-18.6H333.5Z" style="fill:#666"/><path d="M333,389H169.6A18.6,18.6,0,0,1,151,370.4V300.6A18.6,18.6,0,0,1,169.6,282H333Z" style="fill:#666"/><path d="M332.5,388.5H169.1a18.6,18.6,0,0,1-18.6-18.6V300.1a18.6,18.6,0,0,1,18.6-18.6H332.5Z" style="fill:#666"/><path d="M332,388H168.6A18.6,18.6,0,0,1,150,369.4V299.6A18.6,18.6,0,0,1,168.6,281H332Z" style="fill:#666"/><path d="M331.5,387.5H168.1a18.6,18.6,0,0,1-18.6-18.6V299.1a18.6,18.6,0,0,1,18.6-18.6H331.5Z" style="fill:#666"/><path d="M331,387H167.6A18.6,18.6,0,0,1,149,368.4V298.6A18.6,18.6,0,0,1,167.6,280H331Z" style="fill:#666"/><path d="M330.5,386.5H167.1a18.6,18.6,0,0,1-18.6-18.6V298.1a18.6,18.6,0,0,1,18.6-18.6H330.5Z" style="fill:#666"/><path d="M330,386H166.6A18.6,18.6,0,0,1,148,367.4V297.6A18.6,18.6,0,0,1,166.6,279H330Z" style="fill:#666"/><path d="M329.5,385.5H166.1a18.6,18.6,0,0,1-18.6-18.6V297.1a18.6,18.6,0,0,1,18.6-18.6H329.5Z" style="fill:#666"/><path d="M329,385H165.6A18.6,18.6,0,0,1,147,366.4V296.6A18.6,18.6,0,0,1,165.6,278H329Z" style="fill:#666"/><path d="M328.5,384.5H165.1a18.6,18.6,0,0,1-18.6-18.6V296.1a18.6,18.6,0,0,1,18.6-18.6H328.5Z" style="fill:#666"/><path d="M328,384H164.6A18.6,18.6,0,0,1,146,365.4V295.6A18.6,18.6,0,0,1,164.6,277H328Z" style="fill:#666"/><path d="M327.5,383.5H164.1a18.6,18.6,0,0,1-18.6-18.6V295.1a18.6,18.6,0,0,1,18.6-18.6H327.5Z" style="fill:#666"/><path d="M327,383H163.6A18.6,18.6,0,0,1,145,364.4V294.6A18.6,18.6,0,0,1,163.6,276H327Z" style="fill:#666"/><path d="M326.5,382.5H163.1a18.6,18.6,0,0,1-18.6-18.6V294.1a18.6,18.6,0,0,1,18.6-18.6H326.5Z" style="fill:#666"/><path d="M326,382H162.6A18.6,18.6,0,0,1,144,363.4V293.6A18.6,18.6,0,0,1,162.6,275H326Z" style="fill:#666"/><path d="M325.5,381.5H162.1a18.6,18.6,0,0,1-18.6-18.6V293.1a18.6,18.6,0,0,1,18.6-18.6H325.5Z" style="fill:#666"/><path d="M325,381H161.6A18.6,18.6,0,0,1,143,362.4V292.6A18.6,18.6,0,0,1,161.6,274H325Z" style="fill:#666"/><path d="M324.5,380.5H161.1a18.6,18.6,0,0,1-18.6-18.6V292.1a18.6,18.6,0,0,1,18.6-18.6H324.5Z" style="fill:#666"/><path d="M324,380H160.6A18.6,18.6,0,0,1,142,361.4V291.6A18.6,18.6,0,0,1,160.6,273H324Z" style="fill:#666"/><path d="M323.5,379.5H160.1a18.6,18.6,0,0,1-18.6-18.6V291.1a18.6,18.6,0,0,1,18.6-18.6H323.5Z" style="fill:#666"/><path d="M323,379H159.6A18.6,18.6,0,0,1,141,360.4V290.6A18.6,18.6,0,0,1,159.6,272H323Z" style="fill:#666"/><path d="M322.5,378.5H159.1a18.6,18.6,0,0,1-18.6-18.6V290.1a18.6,18.6,0,0,1,18.6-18.6H322.5Z" style="fill:#666"/><path d="M322,378H158.6A18.6,18.6,0,0,1,140,359.4V289.6A18.6,18.6,0,0,1,158.6,271H322Z" style="fill:#666"/><path d="M321.5,377.5H158.1a18.6,18.6,0,0,1-18.6-18.6V289.1a18.6,18.6,0,0,1,18.6-18.6H321.5Z" style="fill:#666"/><path d="M321,377H157.6A18.6,18.6,0,0,1,139,358.4V288.6A18.6,18.6,0,0,1,157.6,270H321Z" style="fill:#666"/><path d="M320.5,376.5H157.1a18.6,18.6,0,0,1-18.6-18.6V288.1a18.6,18.6,0,0,1,18.6-18.6H320.5Z" style="fill:#666"/><path d="M320,376H156.6A18.6,18.6,0,0,1,138,357.4V287.6A18.6,18.6,0,0,1,156.6,269H320Z" style="fill:#666"/><path d="M319.5,375.5H156.1a18.6,18.6,0,0,1-18.6-18.6V287.1a18.6,18.6,0,0,1,18.6-18.6H319.5Z" style="fill:#666"/><path d="M319,375H155.6A18.6,18.6,0,0,1,137,356.4V286.6A18.6,18.6,0,0,1,155.6,268H319Z" style="fill:#666"/><path d="M318.5,374.5H155.1a18.6,18.6,0,0,1-18.6-18.6V286.1a18.6,18.6,0,0,1,18.6-18.6H318.5Z" style="fill:#666"/><path d="M318,374H154.6A18.6,18.6,0,0,1,136,355.4V285.6A18.6,18.6,0,0,1,154.6,267H318Z" style="fill:#666"/><path d="M317.5,373.5H154.1a18.6,18.6,0,0,1-18.6-18.6V285.1a18.6,18.6,0,0,1,18.6-18.6H317.5Z" style="fill:#666"/><path d="M317,373H153.6A18.6,18.6,0,0,1,135,354.4V284.6A18.6,18.6,0,0,1,153.6,266H317Z" style="fill:#666"/><path d="M316.5,372.5H153.1a18.6,18.6,0,0,1-18.6-18.6V284.1a18.6,18.6,0,0,1,18.6-18.6H316.5Z" style="fill:#666"/><path d="M316,372H152.6A18.6,18.6,0,0,1,134,353.4V283.6A18.6,18.6,0,0,1,152.6,265H316Z" style="fill:#666"/><path d="M315.5,371.5H152.1a18.6,18.6,0,0,1-18.6-18.6V283.1a18.6,18.6,0,0,1,18.6-18.6H315.5Z" style="fill:#666"/><path d="M315,371H151.6A18.6,18.6,0,0,1,133,352.4V282.6A18.6,18.6,0,0,1,151.6,264H315Z" style="fill:#666"/><path d="M314.5,370.5H151.1a18.6,18.6,0,0,1-18.6-18.6V282.1a18.6,18.6,0,0,1,18.6-18.6H314.5Z" style="fill:#666"/><path d="M314,370H150.6A18.6,18.6,0,0,1,132,351.4V281.6A18.6,18.6,0,0,1,150.6,263H314Z" style="fill:#666"/><path d="M313.5,369.5H150.1a18.6,18.6,0,0,1-18.6-18.6V281.1a18.6,18.6,0,0,1,18.6-18.6H313.5Z" style="fill:#666"/><path d="M313,369H149.6A18.6,18.6,0,0,1,131,350.4V280.6A18.6,18.6,0,0,1,149.6,262H313Z" style="fill:#666"/><path d="M312.5,368.5H149.1a18.6,18.6,0,0,1-18.6-18.6V280.1a18.6,18.6,0,0,1,18.6-18.6H312.5Z" style="fill:#666"/><path d="M312,368H148.6A18.6,18.6,0,0,1,130,349.4V279.6A18.6,18.6,0,0,1,148.6,261H312Z" style="fill:#666"/><path d="M311.5,367.5H148.1a18.6,18.6,0,0,1-18.6-18.6V279.1a18.6,18.6,0,0,1,18.6-18.6H311.5Z" style="fill:#666"/><path d="M311,367H147.6A18.6,18.6,0,0,1,129,348.4V278.6A18.6,18.6,0,0,1,147.6,260H311Z" style="fill:#666"/><path d="M310.5,366.5H147.1a18.6,18.6,0,0,1-18.6-18.6V278.1a18.6,18.6,0,0,1,18.6-18.6H310.5Z" style="fill:#666"/><path d="M310,366H146.6A18.6,18.6,0,0,1,128,347.4V277.6A18.6,18.6,0,0,1,146.6,259H310Z" style="fill:#666"/><path d="M309.5,365.5H146.1a18.6,18.6,0,0,1-18.6-18.6V277.1a18.6,18.6,0,0,1,18.6-18.6H309.5Z" style="fill:#666"/><path d="M309,365H145.6A18.6,18.6,0,0,1,127,346.4V276.6A18.6,18.6,0,0,1,145.6,258H309Z" style="fill:#666"/><path d="M308.5,364.5H145.1a18.6,18.6,0,0,1-18.6-18.6V276.1a18.6,18.6,0,0,1,18.6-18.6H308.5Z" style="fill:#666"/><path d="M308,364H144.6A18.6,18.6,0,0,1,126,345.4V275.6A18.6,18.6,0,0,1,144.6,257H308Z" style="fill:#666"/><path d="M307.5,363.5H144.1a18.6,18.6,0,0,1-18.6-18.6V275.1a18.6,18.6,0,0,1,18.6-18.6H307.5Z" style="fill:#666"/><path d="M307,363H143.6A18.6,18.6,0,0,1,125,344.4V274.6A18.6,18.6,0,0,1,143.6,256H307Z" style="fill:#666"/><path d="M306.5,362.5H143.1a18.6,18.6,0,0,1-18.6-18.6V274.1a18.6,18.6,0,0,1,18.6-18.6H306.5Z" style="fill:#666"/><path d="M306,362H142.6A18.6,18.6,0,0,1,124,343.4V273.6A18.6,18.6,0,0,1,142.6,255H306Z" style="fill:#666"/><path d="M305.5,361.5H142.1a18.6,18.6,0,0,1-18.6-18.6V273.1a18.6,18.6,0,0,1,18.6-18.6H305.5Z" style="fill:#666"/><path d="M305,361H141.6A18.6,18.6,0,0,1,123,342.4V272.6A18.6,18.6,0,0,1,141.6,254H305Z" style="fill:#666"/><path d="M304.5,360.5H141.1a18.6,18.6,0,0,1-18.6-18.6V272.1a18.6,18.6,0,0,1,18.6-18.6H304.5Z" style="fill:#666"/><path d="M304,360H140.6A18.6,18.6,0,0,1,122,341.4V271.6A18.6,18.6,0,0,1,140.6,253H304Z" style="fill:#666"/><path d="M303.5,359.5H140.1a18.6,18.6,0,0,1-18.6-18.6V271.1a18.6,18.6,0,0,1,18.6-18.6H303.5Z" style="fill:#666"/><path d="M303,359H139.6A18.6,18.6,0,0,1,121,340.4V270.6A18.6,18.6,0,0,1,139.6,252H303Z" style="fill:#666"/><path d="M302.5,358.5H139.1a18.6,18.6,0,0,1-18.6-18.6V270.1a18.6,18.6,0,0,1,18.6-18.6H302.5Z" style="fill:#666"/><path d="M302,358H138.6A18.6,18.6,0,0,1,120,339.4V269.6A18.6,18.6,0,0,1,138.6,251H302Z" style="fill:#666"/><path d="M301.5,357.5H138.1a18.6,18.6,0,0,1-18.6-18.6V269.1a18.6,18.6,0,0,1,18.6-18.6H301.5Z" style="fill:#666"/><path d="M301,357H137.6A18.6,18.6,0,0,1,119,338.4V268.6A18.6,18.6,0,0,1,137.6,250H301Z" style="fill:#666"/><path d="M300.5,356.5H137.1a18.6,18.6,0,0,1-18.6-18.6V268.1a18.6,18.6,0,0,1,18.6-18.6H300.5Z" style="fill:#666"/><path d="M300,356H136.6A18.6,18.6,0,0,1,118,337.4V267.6A18.6,18.6,0,0,1,136.6,249H300Z" style="fill:#666"/><path d="M299.5,355.5H136.1a18.6,18.6,0,0,1-18.6-18.6V267.1a18.6,18.6,0,0,1,18.6-18.6H299.5Z" style="fill:#666"/><path d="M299,355H135.6A18.6,18.6,0,0,1,117,336.4V266.6A18.6,18.6,0,0,1,135.6,248H299Z" style="fill:#666"/><path d="M298.5,354.5H135.1a18.6,18.6,0,0,1-18.6-18.6V266.1a18.6,18.6,0,0,1,18.6-18.6H298.5Z" style="fill:#666"/><path d="M298,354H134.6A18.6,18.6,0,0,1,116,335.4V265.6A18.6,18.6,0,0,1,134.6,247H298Z" style="fill:#666"/><path d="M297.5,353.5H134.1a18.6,18.6,0,0,1-18.6-18.6V265.1a18.6,18.6,0,0,1,18.6-18.6H297.5Z" style="fill:#666"/><path d="M297,353H133.6A18.6,18.6,0,0,1,115,334.4V264.6A18.6,18.6,0,0,1,133.6,246H297Z" style="fill:#666"/><path d="M296.5,352.5H133.1a18.6,18.6,0,0,1-18.6-18.6V264.1a18.6,18.6,0,0,1,18.6-18.6H296.5Z" style="fill:#666"/><path d="M296,352H132.6A18.6,18.6,0,0,1,114,333.4V263.6A18.6,18.6,0,0,1,132.6,245H296Z" style="fill:#666"/><path d="M295.5,351.5H132.1a18.6,18.6,0,0,1-18.6-18.6V263.1a18.6,18.6,0,0,1,18.6-18.6H295.5Z" style="fill:#666"/><path d="M295,351H131.6A18.6,18.6,0,0,1,113,332.4V262.6A18.6,18.6,0,0,1,131.6,244H295Z" style="fill:#666"/><path d="M294.5,350.5H131.1a18.6,18.6,0,0,1-18.6-18.6V262.1a18.6,18.6,0,0,1,18.6-18.6H294.5Z" style="fill:#666"/><path d="M294,350H130.6A18.6,18.6,0,0,1,112,331.4V261.6A18.6,18.6,0,0,1,130.6,243H294Z" style="fill:#666"/><path d="M293.5,349.5H130.1a18.6,18.6,0,0,1-18.6-18.6V261.1a18.6,18.6,0,0,1,18.6-18.6H293.5Z" style="fill:#666"/><path d="M293,349H129.6A18.6,18.6,0,0,1,111,330.4V260.6A18.6,18.6,0,0,1,129.6,242H293Z" style="fill:#666"/><path d="M292.5,348.5H129.1a18.6,18.6,0,0,1-18.6-18.6V260.1a18.6,18.6,0,0,1,18.6-18.6H292.5Z" style="fill:#666"/><path d="M292,348H128.6A18.6,18.6,0,0,1,110,329.4V259.6A18.6,18.6,0,0,1,128.6,241H292Z" style="fill:#666"/></g><path d="M292,348H128.6A18.6,18.6,0,0,1,110,329.4V259.6A18.6,18.6,0,0,1,128.6,241H292Z" style="fill:none;stroke:#000;stroke-miterlimit:10;stroke-width:3px"/><path d="M292,348H128.6A18.6,18.6,0,0,1,110,329.4V259.6A18.6,18.6,0,0,1,128.6,241H292Z" style="fill:#fff"/><g style="mix-blend-mode:multiply"><rect x="430" y="293" width="100" height="205" rx="10.2" style="fill:#666"/><rect x="429.5" y="292.5" width="100" height="205" rx="10.2" style="fill:#666"/><rect x="429" y="292" width="100" height="205" rx="10.2" style="fill:#666"/><rect x="428.5" y="291.5" width="100" height="205" rx="10.2" style="fill:#666"/><rect x="428" y="291" width="100" height="205" rx="10.2" style="fill:#666"/><rect x="427.5" y="290.5" width="100" height="205" rx="10.2" style="fill:#666"/><rect x="427" y="290" width="100" height="205" rx="10.2" style="fill:#666"/><rect x="426.5" y="289.5" width="100" height="205" rx="10.2" style="fill:#666"/><rect x="426" y="289" width="100" height="205" rx="10.2" style="fill:#666"/><rect x="425.5" y="288.5" width="100" height="205" rx="10.2" style="fill:#666"/><rect x="425" y="288" width="100" height="205" rx="10.2" style="fill:#666"/><rect x="424.5" y="287.5" width="100" height="205" rx="10.2" style="fill:#666"/><rect x="424" y="287" width="100" height="205" rx="10.2" style="fill:#666"/><rect x="423.5" y="286.5" width="100" height="205" rx="10.2" style="fill:#666"/><rect x="423" y="286" width="100" height="205" rx="10.2" style="fill:#666"/><rect x="422.5" y="285.5" width="100" height="205" rx="10.2" style="fill:#666"/><rect x="422" y="285" width="100" height="205" rx="10.2" style="fill:#666"/><rect x="421.5" y="284.5" width="100" height="205" rx="10.2" style="fill:#666"/><rect x="421" y="284" width="100" height="205" rx="10.2" style="fill:#666"/><rect x="420.5" y="283.5" width="100" height="205" rx="10.2" style="fill:#666"/><rect x="420" y="283" width="100" height="205" rx="10.2" style="fill:#666"/><rect x="419.5" y="282.5" width="100" height="205" rx="10.2" style="fill:#666"/><rect x="419" y="282" width="100" height="205" rx="10.2" style="fill:#666"/><rect x="418.5" y="281.5" width="100" height="205" rx="10.2" style="fill:#666"/><rect x="418" y="281" width="100" height="205" rx="10.2" style="fill:#666"/><rect x="417.5" y="280.5" width="100" height="205" rx="10.2" style="fill:#666"/><rect x="417" y="280" width="100" height="205" rx="10.2" style="fill:#666"/><rect x="416.5" y="279.5" width="100" height="205" rx="10.2" style="fill:#666"/><rect x="416" y="279" width="100" height="205" rx="10.2" style="fill:#666"/><rect x="415.5" y="278.5" width="100" height="205" rx="10.2" style="fill:#666"/><rect x="415" y="278" width="100" height="205" rx="10.2" style="fill:#666"/><rect x="414.5" y="277.5" width="100" height="205" rx="10.2" style="fill:#666"/><rect x="414" y="277" width="100" height="205" rx="10.2" style="fill:#666"/><rect x="413.5" y="276.5" width="100" height="205" rx="10.2" style="fill:#666"/><rect x="413" y="276" width="100" height="205" rx="10.2" style="fill:#666"/><rect x="412.5" y="275.5" width="100" height="205" rx="10.2" style="fill:#666"/><rect x="412" y="275" width="100" height="205" rx="10.2" style="fill:#666"/><rect x="411.5" y="274.5" width="100" height="205" rx="10.2" style="fill:#666"/><rect x="411" y="274" width="100" height="205" rx="10.2" style="fill:#666"/><rect x="410.5" y="273.5" width="100" height="205" rx="10.2" style="fill:#666"/><rect x="410" y="273" width="100" height="205" rx="10.2" style="fill:#666"/><rect x="409.5" y="272.5" width="100" height="205" rx="10.2" style="fill:#666"/><rect x="409" y="272" width="100" height="205" rx="10.2" style="fill:#666"/><rect x="408.5" y="271.5" width="100" height="205" rx="10.2" style="fill:#666"/><rect x="408" y="271" width="100" height="205" rx="10.2" style="fill:#666"/><rect x="407.5" y="270.5" width="100" height="205" rx="10.2" style="fill:#666"/><rect x="407" y="270" width="100" height="205" rx="10.2" style="fill:#666"/><rect x="406.5" y="269.5" width="100" height="205" rx="10.2" style="fill:#666"/><rect x="406" y="269" width="100" height="205" rx="10.2" style="fill:#666"/><rect x="405.5" y="268.5" width="100" height="205" rx="10.2" style="fill:#666"/><rect x="405" y="268" width="100" height="205" rx="10.2" style="fill:#666"/><rect x="404.5" y="267.5" width="100" height="205" rx="10.2" style="fill:#666"/><rect x="404" y="267" width="100" height="205" rx="10.2" style="fill:#666"/><rect x="403.5" y="266.5" width="100" height="205" rx="10.2" style="fill:#666"/><rect x="403" y="266" width="100" height="205" rx="10.2" style="fill:#666"/><rect x="402.5" y="265.5" width="100" height="205" rx="10.2" style="fill:#666"/><rect x="402" y="265" width="100" height="205" rx="10.2" style="fill:#666"/><rect x="401.5" y="264.5" width="100" height="205" rx="10.2" style="fill:#666"/><rect x="401" y="264" width="100" height="205" rx="10.2" style="fill:#666"/><rect x="400.5" y="263.5" width="100" height="205" rx="10.2" style="fill:#666"/><rect x="400" y="263" width="100" height="205" rx="10.2" style="fill:#666"/><rect x="399.5" y="262.5" width="100" height="205" rx="10.2" style="fill:#666"/><rect x="399" y="262" width="100" height="205" rx="10.2" style="fill:#666"/><rect x="398.5" y="261.5" width="100" height="205" rx="10.2" style="fill:#666"/><rect x="398" y="261" width="100" height="205" rx="10.2" style="fill:#666"/><rect x="397.5" y="260.5" width="100" height="205" rx="10.2" style="fill:#666"/><rect x="397" y="260" width="100" height="205" rx="10.2" style="fill:#666"/><rect x="396.5" y="259.5" width="100" height="205" rx="10.2" style="fill:#666"/><rect x="396" y="259" width="100" height="205" rx="10.2" style="fill:#666"/><rect x="395.5" y="258.5" width="100" height="205" rx="10.2" style="fill:#666"/><rect x="395" y="258" width="100" height="205" rx="10.2" style="fill:#666"/><rect x="394.5" y="257.5" width="100" height="205" rx="10.2" style="fill:#666"/><rect x="394" y="257" width="100" height="205" rx="10.2" style="fill:#666"/><rect x="393.5" y="256.5" width="100" height="205" rx="10.2" style="fill:#666"/><rect x="393" y="256" width="100" height="205" rx="10.2" style="fill:#666"/><rect x="392.5" y="255.5" width="100" height="205" rx="10.2" style="fill:#666"/><rect x="392" y="255" width="100" height="205" rx="10.2" style="fill:#666"/><rect x="391.5" y="254.5" width="100" height="205" rx="10.2" style="fill:#666"/><rect x="391" y="254" width="100" height="205" rx="10.2" style="fill:#666"/><rect x="390.5" y="253.5" width="100" height="205" rx="10.2" style="fill:#666"/><rect x="390" y="253" width="100" height="205" rx="10.2" style="fill:#666"/><rect x="389.5" y="252.5" width="100" height="205" rx="10.2" style="fill:#666"/><rect x="389" y="252" width="100" height="205" rx="10.2" style="fill:#666"/><rect x="388.5" y="251.5" width="100" height="205" rx="10.2" style="fill:#666"/><rect x="388" y="251" width="100" height="205" rx="10.2" style="fill:#666"/><rect x="387.5" y="250.5" width="100" height="205" rx="10.2" style="fill:#666"/><rect x="387" y="250" width="100" height="205" rx="10.2" style="fill:#666"/><rect x="386.5" y="249.5" width="100" height="205" rx="10.2" style="fill:#666"/><rect x="386" y="249" width="100" height="205" rx="10.2" style="fill:#666"/><rect x="385.5" y="248.5" width="100" height="205" rx="10.2" style="fill:#666"/><rect x="385" y="248" width="100" height="205" rx="10.2" style="fill:#666"/><rect x="384.5" y="247.5" width="100" height="205" rx="10.2" style="fill:#666"/><rect x="384" y="247" width="100" height="205" rx="10.2" style="fill:#666"/><rect x="383.5" y="246.5" width="100" height="205" rx="10.2" style="fill:#666"/><rect x="383" y="246" width="100" height="205" rx="10.2" style="fill:#666"/><rect x="382.5" y="245.5" width="100" height="205" rx="10.2" style="fill:#666"/><rect x="382" y="245" width="100" height="205" rx="10.2" style="fill:#666"/><rect x="381.5" y="244.5" width="100" height="205" rx="10.2" style="fill:#666"/><rect x="381" y="244" width="100" height="205" rx="10.2" style="fill:#666"/><rect x="380.5" y="243.5" width="100" height="205" rx="10.2" style="fill:#666"/><rect x="380" y="243" width="100" height="205" rx="10.2" style="fill:#666"/><rect x="379.5" y="242.5" width="100" height="205" rx="10.2" style="fill:#666"/><rect x="379" y="242" width="100" height="205" rx="10.2" style="fill:#666"/><rect x="378.5" y="241.5" width="100" height="205" rx="10.2" style="fill:#666"/><rect x="378" y="241" width="100" height="205" rx="10.2" style="fill:#666"/><rect x="377.5" y="240.5" width="100" height="205" rx="10.2" style="fill:#666"/><rect x="377" y="240" width="100" height="205" rx="10.2" style="fill:#666"/><rect x="376.5" y="239.5" width="100" height="205" rx="10.2" style="fill:#666"/><rect x="376" y="239" width="100" height="205" rx="10.2" style="fill:#666"/><rect x="375.5" y="238.5" width="100" height="205" rx="10.2" style="fill:#666"/><rect x="375" y="238" width="100" height="205" rx="10.2" style="fill:#666"/><rect x="374.5" y="237.5" width="100" height="205" rx="10.2" style="fill:#666"/><rect x="374" y="237" width="100" height="205" rx="10.2" style="fill:#666"/><rect x="373.5" y="236.5" width="100" height="205" rx="10.2" style="fill:#666"/><rect x="373" y="236" width="100" height="205" rx="10.2" style="fill:#666"/><rect x="372.5" y="235.5" width="100" height="205" rx="10.2" style="fill:#666"/><rect x="372" y="235" width="100" height="205" rx="10.2" style="fill:#666"/><rect x="371.5" y="234.5" width="100" height="205" rx="10.2" style="fill:#666"/><rect x="371" y="234" width="100" height="205" rx="10.2" style="fill:#666"/><rect x="370.5" y="233.5" width="100" height="205" rx="10.2" style="fill:#666"/><rect x="370" y="233" width="100" height="205" rx="10.2" style="fill:#666"/><rect x="369.5" y="232.5" width="100" height="205" rx="10.2" style="fill:#666"/><rect x="369" y="232" width="100" height="205" rx="10.2" style="fill:#666"/><rect x="368.5" y="231.5" width="100" height="205" rx="10.2" style="fill:#666"/><rect x="368" y="231" width="100" height="205" rx="10.2" style="fill:#666"/><rect x="367.5" y="230.5" width="100" height="205" rx="10.2" style="fill:#666"/><rect x="367" y="230" width="100" height="205" rx="10.2" style="fill:#666"/><rect x="366.5" y="229.5" width="100" height="205" rx="10.2" style="fill:#666"/><rect x="366" y="229" width="100" height="205" rx="10.2" style="fill:#666"/><rect x="365.5" y="228.5" width="100" height="205" rx="10.2" style="fill:#666"/><rect x="365" y="228" width="100" height="205" rx="10.2" style="fill:#666"/><rect x="364.5" y="227.5" width="100" height="205" rx="10.2" style="fill:#666"/><rect x="364" y="227" width="100" height="205" rx="10.2" style="fill:#666"/><rect x="363.5" y="226.5" width="100" height="205" rx="10.2" style="fill:#666"/><rect x="363" y="226" width="100" height="205" rx="10.2" style="fill:#666"/><rect x="362.5" y="225.5" width="100" height="205" rx="10.2" style="fill:#666"/><rect x="362" y="225" width="100" height="205" rx="10.2" style="fill:#666"/><rect x="361.5" y="224.5" width="100" height="205" rx="10.2" style="fill:#666"/><rect x="361" y="224" width="100" height="205" rx="10.2" style="fill:#666"/><rect x="360.5" y="223.5" width="100" height="205" rx="10.2" style="fill:#666"/><rect x="360" y="223" width="100" height="205" rx="10.2" style="fill:#666"/><rect x="359.5" y="222.5" width="100" height="205" rx="10.2" style="fill:#666"/><rect x="359" y="222" width="100" height="205" rx="10.2" style="fill:#666"/><rect x="358.5" y="221.5" width="100" height="205" rx="10.2" style="fill:#666"/><rect x="358" y="221" width="100" height="205" rx="10.2" style="fill:#666"/><rect x="357.5" y="220.5" width="100" height="205" rx="10.2" style="fill:#666"/><rect x="357" y="220" width="100" height="205" rx="10.2" style="fill:#666"/><rect x="356.5" y="219.5" width="100" height="205" rx="10.2" style="fill:#666"/><rect x="356" y="219" width="100" height="205" rx="10.2" style="fill:#666"/><rect x="355.5" y="218.5" width="100" height="205" rx="10.2" style="fill:#666"/><rect x="355" y="218" width="100" height="205" rx="10.2" style="fill:#666"/><rect x="354.5" y="217.5" width="100" height="205" rx="10.2" style="fill:#666"/><rect x="354" y="217" width="100" height="205" rx="10.2" style="fill:#666"/><rect x="353.5" y="216.5" width="100" height="205" rx="10.2" style="fill:#666"/><rect x="353" y="216" width="100" height="205" rx="10.2" style="fill:#666"/><rect x="352.5" y="215.5" width="100" height="205" rx="10.2" style="fill:#666"/><rect x="352" y="215" width="100" height="205" rx="10.2" style="fill:#666"/><rect x="351.5" y="214.5" width="100" height="205" rx="10.2" style="fill:#666"/><rect x="351" y="214" width="100" height="205" rx="10.2" style="fill:#666"/><rect x="350.5" y="213.5" width="100" height="205" rx="10.2" style="fill:#666"/><rect x="350" y="213" width="100" height="205" rx="10.2" style="fill:#666"/><rect x="349.5" y="212.5" width="100" height="205" rx="10.2" style="fill:#666"/><rect x="349" y="212" width="100" height="205" rx="10.2" style="fill:#666"/><rect x="348.5" y="211.5" width="100" height="205" rx="10.2" style="fill:#666"/><rect x="348" y="211" width="100" height="205" rx="10.2" style="fill:#666"/><rect x="347.5" y="210.5" width="100" height="205" rx="10.2" style="fill:#666"/><rect x="347" y="210" width="100" height="205" rx="10.2" style="fill:#666"/><rect x="346.5" y="209.5" width="100" height="205" rx="10.2" style="fill:#666"/><rect x="346" y="209" width="100" height="205" rx="10.2" style="fill:#666"/><rect x="345.5" y="208.5" width="100" height="205" rx="10.2" style="fill:#666"/><rect x="345" y="208" width="100" height="205" rx="10.2" style="fill:#666"/><rect x="344.5" y="207.5" width="100" height="205" rx="10.2" style="fill:#666"/><rect x="344" y="207" width="100" height="205" rx="10.2" style="fill:#666"/><rect x="343.5" y="206.5" width="100" height="205" rx="10.2" style="fill:#666"/><rect x="343" y="206" width="100" height="205" rx="10.2" style="fill:#666"/><rect x="342.5" y="205.5" width="100" height="205" rx="10.2" style="fill:#666"/><rect x="342" y="205" width="100" height="205" rx="10.2" style="fill:#666"/><rect x="341.5" y="204.5" width="100" height="205" rx="10.2" style="fill:#666"/><rect x="341" y="204" width="100" height="205" rx="10.2" style="fill:#666"/><rect x="340.5" y="203.5" width="100" height="205" rx="10.2" style="fill:#666"/><rect x="340" y="203" width="100" height="205" rx="10.2" style="fill:#666"/><rect x="339.5" y="202.5" width="100" height="205" rx="10.2" style="fill:#666"/><rect x="339" y="202" width="100" height="205" rx="10.2" style="fill:#666"/><rect x="338.5" y="201.5" width="100" height="205" rx="10.2" style="fill:#666"/><rect x="338" y="201" width="100" height="205" rx="10.2" style="fill:#666"/><rect x="337.5" y="200.5" width="100" height="205" rx="10.2" style="fill:#666"/><rect x="337" y="200" width="100" height="205" rx="10.2" style="fill:#666"/><rect x="336.5" y="199.5" width="100" height="205" rx="10.2" style="fill:#666"/><rect x="336" y="199" width="100" height="205" rx="10.2" style="fill:#666"/><rect x="335.5" y="198.5" width="100" height="205" rx="10.2" style="fill:#666"/><rect x="335" y="198" width="100" height="205" rx="10.2" style="fill:#666"/><rect x="334.5" y="197.5" width="100" height="205" rx="10.2" style="fill:#666"/><rect x="334" y="197" width="100" height="205" rx="10.2" style="fill:#666"/><rect x="333.5" y="196.5" width="100" height="205" rx="10.2" style="fill:#666"/><rect x="333" y="196" width="100" height="205" rx="10.2" style="fill:#666"/><rect x="332.5" y="195.5" width="100" height="205" rx="10.2" style="fill:#666"/><rect x="332" y="195" width="100" height="205" rx="10.2" style="fill:#666"/><rect x="331.5" y="194.5" width="100" height="205" rx="10.2" style="fill:#666"/><rect x="331" y="194" width="100" height="205" rx="10.2" style="fill:#666"/><rect x="330.5" y="193.5" width="100" height="205" rx="10.2" style="fill:#666"/><rect x="330" y="193" width="100" height="205" rx="10.2" style="fill:#666"/><rect x="329.5" y="192.5" width="100" height="205" rx="10.2" style="fill:#666"/><rect x="329" y="192" width="100" height="205" rx="10.2" style="fill:#666"/><rect x="328.5" y="191.5" width="100" height="205" rx="10.2" style="fill:#666"/><rect x="328" y="191" width="100" height="205" rx="10.2" style="fill:#666"/><rect x="327.5" y="190.5" width="100" height="205" rx="10.2" style="fill:#666"/><rect x="327" y="190" width="100" height="205" rx="10.2" style="fill:#666"/><rect x="326.5" y="189.5" width="100" height="205" rx="10.2" style="fill:#666"/><rect x="326" y="189" width="100" height="205" rx="10.2" style="fill:#666"/><rect x="325.5" y="188.5" width="100" height="205" rx="10.2" style="fill:#666"/><rect x="325" y="188" width="100" height="205" rx="10.2" style="fill:#666"/><rect x="324.5" y="187.5" width="100" height="205" rx="10.2" style="fill:#666"/><rect x="324" y="187" width="100" height="205" rx="10.2" style="fill:#666"/><rect x="323.5" y="186.5" width="100" height="205" rx="10.2" style="fill:#666"/><rect x="323" y="186" width="100" height="205" rx="10.2" style="fill:#666"/><rect x="322.5" y="185.5" width="100" height="205" rx="10.2" style="fill:#666"/><rect x="322" y="185" width="100" height="205" rx="10.2" style="fill:#666"/><rect x="321.5" y="184.5" width="100" height="205" rx="10.2" style="fill:#666"/><rect x="321" y="184" width="100" height="205" rx="10.2" style="fill:#666"/><rect x="320.5" y="183.5" width="100" height="205" rx="10.2" style="fill:#666"/><rect x="320" y="183" width="100" height="205" rx="10.2" style="fill:#666"/><rect x="319.5" y="182.5" width="100" height="205" rx="10.2" style="fill:#666"/><rect x="319" y="182" width="100" height="205" rx="10.2" style="fill:#666"/><rect x="318.5" y="181.5" width="100" height="205" rx="10.2" style="fill:#666"/><rect x="318" y="181" width="100" height="205" rx="10.2" style="fill:#666"/><rect x="317.5" y="180.5" width="100" height="205" rx="10.2" style="fill:#666"/><rect x="317" y="180" width="100" height="205" rx="10.2" style="fill:#666"/><rect x="316.5" y="179.5" width="100" height="205" rx="10.2" style="fill:#666"/><rect x="316" y="179" width="100" height="205" rx="10.2" style="fill:#666"/><rect x="315.5" y="178.5" width="100" height="205" rx="10.2" style="fill:#666"/><rect x="315" y="178" width="100" height="205" rx="10.2" style="fill:#666"/><rect x="314.5" y="177.5" width="100" height="205" rx="10.2" style="fill:#666"/><rect x="314" y="177" width="100" height="205" rx="10.2" style="fill:#666"/><rect x="313.5" y="176.5" width="100" height="205" rx="10.2" style="fill:#666"/><rect x="313" y="176" width="100" height="205" rx="10.2" style="fill:#666"/><rect x="312.5" y="175.5" width="100" height="205" rx="10.2" style="fill:#666"/><rect x="312" y="175" width="100" height="205" rx="10.2" style="fill:#666"/><rect x="311.5" y="174.5" width="100" height="205" rx="10.2" style="fill:#666"/><rect x="311" y="174" width="100" height="205" rx="10.2" style="fill:#666"/><rect x="310.5" y="173.5" width="100" height="205" rx="10.2" style="fill:#666"/><rect x="310" y="173" width="100" height="205" rx="10.2" style="fill:#666"/><rect x="309.5" y="172.5" width="100" height="205" rx="10.2" style="fill:#666"/><rect x="309" y="172" width="100" height="205" rx="10.2" style="fill:#666"/><rect x="308.5" y="171.5" width="100" height="205" rx="10.2" style="fill:#666"/><rect x="308" y="171" width="100" height="205" rx="10.2" style="fill:#666"/><rect x="307.5" y="170.5" width="100" height="205" rx="10.2" style="fill:#666"/><rect x="307" y="170" width="100" height="205" rx="10.2" style="fill:#666"/><rect x="306.5" y="169.5" width="100" height="205" rx="10.2" style="fill:#666"/><rect x="306" y="169" width="100" height="205" rx="10.2" style="fill:#666"/><rect x="305.5" y="168.5" width="100" height="205" rx="10.2" style="fill:#666"/><rect x="305" y="168" width="100" height="205" rx="10.2" style="fill:#666"/><rect x="304.5" y="167.5" width="100" height="205" rx="10.2" style="fill:#666"/><rect x="304" y="167" width="100" height="205" rx="10.2" style="fill:#666"/><rect x="303.5" y="166.5" width="100" height="205" rx="10.2" style="fill:#666"/><rect x="303" y="166" width="100" height="205" rx="10.2" style="fill:#666"/><rect x="302.5" y="165.5" width="100" height="205" rx="10.2" style="fill:#666"/><rect x="302" y="165" width="100" height="205" rx="10.2" style="fill:#666"/><rect x="301.5" y="164.5" width="100" height="205" rx="10.2" style="fill:#666"/><rect x="301" y="164" width="100" height="205" rx="10.2" style="fill:#666"/><rect x="300.5" y="163.5" width="100" height="205" rx="10.2" style="fill:#666"/><rect x="300" y="163" width="100" height="205" rx="10.2" style="fill:#666"/><rect x="299.5" y="162.5" width="100" height="205" rx="10.2" style="fill:#666"/><rect x="299" y="162" width="100" height="205" rx="10.2" style="fill:#666"/><rect x="298.5" y="161.5" width="100" height="205" rx="10.2" style="fill:#666"/><rect x="298" y="161" width="100" height="205" rx="10.2" style="fill:#666"/><rect x="297.5" y="160.5" width="100" height="205" rx="10.2" style="fill:#666"/><rect x="297" y="160" width="100" height="205" rx="10.2" style="fill:#666"/><rect x="296.5" y="159.5" width="100" height="205" rx="10.2" style="fill:#666"/><rect x="296" y="159" width="100" height="205" rx="10.2" style="fill:#666"/><rect x="295.5" y="158.5" width="100" height="205" rx="10.2" style="fill:#666"/><rect x="295" y="158" width="100" height="205" rx="10.2" style="fill:#666"/><rect x="294.5" y="157.5" width="100" height="205" rx="10.2" style="fill:#666"/><rect x="294" y="157" width="100" height="205" rx="10.2" style="fill:#666"/><rect x="293.5" y="156.5" width="100" height="205" rx="10.2" style="fill:#666"/><rect x="293" y="156" width="100" height="205" rx="10.2" style="fill:#666"/><rect x="292.5" y="155.5" width="100" height="205" rx="10.2" style="fill:#666"/><rect x="292" y="155" width="100" height="205" rx="10.2" style="fill:#666"/><rect x="291.5" y="154.5" width="100" height="205" rx="10.2" style="fill:#666"/><rect x="291" y="154" width="100" height="205" rx="10.2" style="fill:#666"/><rect x="290.5" y="153.5" width="100" height="205" rx="10.2" style="fill:#666"/><rect x="290" y="153" width="100" height="205" rx="10.2" style="fill:#666"/><rect x="289.5" y="152.5" width="100" height="205" rx="10.2" style="fill:#666"/><rect x="289" y="152" width="100" height="205" rx="10.2" style="fill:#666"/><rect x="288.5" y="151.5" width="100" height="205" rx="10.2" style="fill:#666"/><rect x="288" y="151" width="100" height="205" rx="10.2" style="fill:#666"/><rect x="287.5" y="150.5" width="100" height="205" rx="10.2" style="fill:#666"/><rect x="287" y="150" width="100" height="205" rx="10.2" style="fill:#666"/><rect x="286.5" y="149.5" width="100" height="205" rx="10.2" style="fill:#666"/><rect x="286" y="149" width="100" height="205" rx="10.2" style="fill:#666"/><rect x="285.5" y="148.5" width="100" height="205" rx="10.2" style="fill:#666"/><rect x="285" y="148" width="100" height="205" rx="10.2" style="fill:#666"/><rect x="284.5" y="147.5" width="100" height="205" rx="10.2" style="fill:#666"/><rect x="284" y="147" width="100" height="205" rx="10.2" style="fill:#666"/><rect x="283.5" y="146.5" width="100" height="205" rx="10.2" style="fill:#666"/><rect x="283" y="146" width="100" height="205" rx="10.2" style="fill:#666"/><rect x="282.5" y="145.5" width="100" height="205" rx="10.2" style="fill:#666"/><rect x="282" y="145" width="100" height="205" rx="10.2" style="fill:#666"/><rect x="281.5" y="144.5" width="100" height="205" rx="10.2" style="fill:#666"/><rect x="281" y="144" width="100" height="205" rx="10.2" style="fill:#666"/><rect x="280.5" y="143.5" width="100" height="205" rx="10.2" style="fill:#666"/><rect x="280" y="143" width="100" height="205" rx="10.2" style="fill:#666"/></g><rect x="280" y="143" width="100" height="205" rx="10.2" style="fill:none;stroke:#000;stroke-miterlimit:10;stroke-width:3px"/><rect x="280" y="143" width="100" height="205" rx="10.2" style="fill:#fff"/><rect x="140" y="232" width="35" height="7" style="fill:#fff;stroke:#000;stroke-miterlimit:10;stroke-width:2px"/><line x1="126" y1="232" x2="140" y2="232" style="fill:#fff;stroke:#000;stroke-miterlimit:10;stroke-width:2px"/><line x1="175" y1="232" x2="189" y2="232" style="fill:#fff;stroke:#000;stroke-miterlimit:10;stroke-width:2px"/><rect x="223" y="232" width="35" height="7" style="fill:#fff;stroke:#000;stroke-miterlimit:10;stroke-width:2px"/><line x1="209" y1="232" x2="223" y2="232" style="fill:#fff;stroke:#000;stroke-miterlimit:10;stroke-width:2px"/><line x1="258" y1="232" x2="272" y2="232" style="fill:#fff;stroke:#000;stroke-miterlimit:10;stroke-width:2px"/><line x1="201" y1="241" x2="201" y2="348" style="fill:#fff;stroke:#000;stroke-miterlimit:10;stroke-width:2px"/><path d="M259.73,324H222.27A10.27,10.27,0,0,1,212,313.73V276.27A10.27,10.27,0,0,1,222.27,266h37.46c5.67,0,10.27,4.6,11.27,10.27v37.46C270,319.4,265.4,324,259.73,324Z" style="fill:#fff;stroke:#000;stroke-miterlimit:10;stroke-width:2px"/><line x1="201" y1="265" x2="110" y2="265" style="fill:#fff;stroke:#000;stroke-miterlimit:10;stroke-width:2px"/><line x1="148" y1="250" x2="164" y2="250" style="fill:#fff;stroke:#000;stroke-miterlimit:10;stroke-width:2px"/><line x1="280" y1="213" x2="380" y2="213" style="fill:#fff;stroke:#000;stroke-miterlimit:10;stroke-width:2px"/><line x1="293" y1="223" x2="293" y2="241" style="fill:#fff;stroke:#000;stroke-miterlimit:10;stroke-width:2px"/><line x1="293" y1="185" x2="293" y2="203" style="fill:#fff;stroke:#000;stroke-miterlimit:10;stroke-width:2px"/><line x1="279.5" y1="335.5" x2="378.5" y2="335.5" style="fill:none;stroke:#000;stroke-miterlimit:10;stroke-width:0.5px"/><line x1="279.5" y1="155.5" x2="379.5" y2="155.5" style="fill:#fff;stroke:#000;stroke-miterlimit:10;stroke-width:0.5px"/><polygon points="223.5 142.5 160.5 142.5 140.5 182.5 243.5 182.5 223.5 142.5" style="fill:#fff;stroke:#000;stroke-miterlimit:10;stroke-width:2px"/><path d="M189.59,125h9.82a3.59,3.59,0,0,1,3.59,3.59V142a0,0,0,0,1,0,0H186a0,0,0,0,1,0,0V128.59A3.59,3.59,0,0,1,189.59,125Z" style="fill:#fff;stroke:#000;stroke-miterlimit:10;stroke-width:2px"/></g></g></g></svg>